<svg width="29" height="23" viewBox="0 0 29 23" fill="none" xmlns="http://www.w3.org/2000/svg">
<path fill-rule="evenodd" clip-rule="evenodd" d="M28.84 9.89311V9.74803H27.9901C23.2258 9.74803 19.3636 5.8858 19.3636 1.1215V0.271606H16.7286V1.1215C16.7286 4.66734 18.3672 7.82931 20.9271 9.89311H0.873047V12.5281H20.9315C18.3691 14.5918 16.7286 17.7554 16.7286 21.3032V22.1531H19.3636V21.3032C19.3636 16.5389 23.2258 12.6767 27.9901 12.6767H28.84L28.8401 12.5281L28.84 9.89311ZM22.3787 9.89311C22.8916 10.2219 23.4352 10.5069 24.0043 10.743H24.0044C23.4353 10.5069 22.8916 10.2219 22.3787 9.89311ZM1.72294 11.6782V11.6782H24.0128C24.0128 11.6782 24.0128 11.6782 24.0129 11.6782H1.72294ZM17.5785 21.3032C17.5785 21.3032 17.5785 21.3032 17.5785 21.3032H18.5137C18.5137 16.0696 22.7564 11.8268 27.9901 11.8268L27.9902 11.6782L27.9901 10.9844V11.6782H27.9901V11.8268C22.7564 11.8268 18.5137 16.0695 18.5137 21.3032H17.5785ZM27.9901 10.743V10.5979C27.9901 10.5979 27.9901 10.5979 27.9901 10.5979V10.743H27.9901ZM18.5137 1.1215C18.5137 2.96157 19.0381 4.67913 19.9457 6.13289C19.0381 4.67913 18.5137 2.96156 18.5137 1.1215H18.5137Z" fill="#E5E8EB"/>
</svg>
