<svg width="90" height="28" viewBox="0 0 90 28" fill="none" xmlns="http://www.w3.org/2000/svg">
<path d="M19.4301 10.4909C19.9652 10.4909 20.2328 10.7117 20.2328 11.1534V11.2929C20.2328 11.6183 19.8954 12.0717 19.2207 12.6528C18.5461 13.234 18.1041 13.7804 17.8947 14.2918L13.393 26.3222C13.1836 26.9266 12.7765 27.2289 12.1717 27.2289H9.10073C8.56566 27.2289 8.14689 26.9266 7.84446 26.3222L2.54019 14.2918C2.35407 13.8733 1.99347 13.3619 1.4584 12.7574C0.946581 12.1298 0.690674 11.6416 0.690674 11.2929V11.1534C0.690674 10.7117 0.958214 10.4909 1.49329 10.4909H9.5195C10.0313 10.4909 10.2872 10.7233 10.2872 11.1882V11.3277C10.2872 11.5602 10.1825 11.8392 9.97315 12.1647C9.76377 12.4668 9.61255 12.7459 9.5195 13.0015C9.4497 13.2573 9.50786 13.7222 9.69397 14.3964L12.6951 22.2772L15.2426 15.2682C15.4984 14.2918 15.5334 13.6176 15.3472 13.2457C15.1611 12.8505 14.8819 12.4901 14.5097 12.1647C14.1607 11.816 13.9863 11.537 13.9863 11.3277V11.1882C13.9863 10.7233 14.2538 10.4909 14.7889 10.4909H19.4301Z" fill="#134A45"/>
<path d="M24.2475 8.43349C23.061 8.43349 22.0956 8.10804 21.3511 7.45712C20.6066 6.78295 20.2344 5.94604 20.2344 4.94641C20.2344 3.94678 20.6066 3.1215 21.3511 2.47057C22.0956 1.79641 23.061 1.45932 24.2475 1.45932C25.4107 1.45932 26.3646 1.79641 27.1091 2.47057C27.8535 3.1215 28.2257 3.94678 28.2257 4.94641C28.2257 5.94604 27.8535 6.78295 27.1091 7.45712C26.3646 8.10804 25.4107 8.43349 24.2475 8.43349ZM20.5136 27.2289C19.9552 27.2289 19.6761 27.008 19.6761 26.5664V26.4268C19.6761 26.1479 19.9087 25.7178 20.374 25.1367C20.8393 24.5555 21.072 23.9743 21.072 23.3931V16.7677C21.072 16.1632 20.8393 15.582 20.374 15.0241C19.9087 14.4429 19.6761 14.0477 19.6761 13.8385V13.699C19.6761 13.4201 19.9437 13.1527 20.4787 12.8969L25.7481 10.3165C26.2366 10.1073 26.6204 10.084 26.8997 10.2468C27.1788 10.4095 27.3184 10.6769 27.3184 11.0488V23.3931C27.3184 23.9743 27.5743 24.5555 28.0862 25.1367C28.6212 25.7178 28.8888 26.1479 28.8888 26.4268V26.5664C28.8888 27.008 28.5979 27.2289 28.0163 27.2289H20.5136Z" fill="#134A45"/>
<path d="M38.8551 27.5776C36.1565 27.5776 33.8649 26.7523 31.9805 25.1018C30.1194 23.428 29.1888 21.3357 29.1888 18.825C29.1888 16.3143 30.1194 14.2453 31.9805 12.618C33.8417 10.9675 36.0518 10.1422 38.6109 10.1422C41.263 10.1422 43.5197 10.9675 45.3808 12.618C47.2419 14.2686 48.1726 16.3608 48.1726 18.8947C48.1726 21.4054 47.2652 23.4861 45.4506 25.1367C43.6359 26.7639 41.4375 27.5776 38.8551 27.5776ZM39.5879 25.8689C41.0769 25.8689 41.8213 24.4392 41.8213 21.5798C41.8213 20.5337 41.6701 19.29 41.3677 17.8486C41.0885 16.4073 40.6 15.0473 39.902 13.7687C39.2274 12.4901 38.4713 11.8508 37.6338 11.8508C36.8195 11.8508 36.2379 12.2112 35.8889 12.9318C35.54 13.6525 35.3655 14.7451 35.3655 16.2097C35.3655 16.9769 35.4586 17.8835 35.6447 18.9296C35.8307 19.9758 36.0867 21.0335 36.4124 22.1029C36.7381 23.149 37.1801 24.044 37.7385 24.788C38.3201 25.5086 38.9365 25.8689 39.5879 25.8689Z" fill="#134A45"/>
<path d="M49.4245 27.2289C48.8894 27.2289 48.6219 27.008 48.6219 26.5664V26.4268C48.6219 26.1479 48.8429 25.7294 49.2849 25.1715C49.7502 24.5903 49.9828 24.0091 49.9828 23.428V7.49198C49.9828 6.88754 49.7502 6.30637 49.2849 5.74843C48.8429 5.16725 48.6219 4.76043 48.6219 4.52795V4.38847C48.6219 4.13275 48.8778 3.86541 49.3896 3.58644L54.6589 1.00599C55.1476 0.796768 55.5314 0.785144 55.8105 0.971123C56.113 1.13385 56.2642 1.38957 56.2642 1.73828V23.428C56.2642 24.0091 56.5201 24.5903 57.0319 25.1715C57.5437 25.7294 57.7997 26.1479 57.7997 26.4268V26.5664C57.7997 27.008 57.5204 27.2289 56.9622 27.2289H49.4245Z" fill="#134A45"/>
<path d="M72.5825 21.7193C72.8384 21.4636 73.1176 21.3938 73.42 21.5101C73.7457 21.6031 73.8969 21.8355 73.8737 22.2075C73.8272 23.3698 73.1525 24.5554 71.8497 25.7643C70.5469 26.9731 68.8602 27.5776 66.7897 27.5776C64.2538 27.5776 62.1833 26.7639 60.5781 25.1367C58.9728 23.5093 58.1702 21.3822 58.1702 18.7553C58.1702 16.2445 59.0078 14.1872 60.6828 12.5831C62.3811 10.9558 64.4051 10.1422 66.7548 10.1422C68.8718 10.1422 70.512 10.6303 71.6752 11.6068C72.8384 12.5831 73.42 13.6873 73.42 14.9195C73.42 15.8958 72.9664 16.6165 72.059 17.0815L65.1147 20.987C66.0685 22.4981 67.3946 23.2536 69.0928 23.2536C69.8141 23.2536 70.4887 23.1142 71.1169 22.8351C71.7682 22.533 72.2568 22.161 72.5825 21.7193ZM66.1266 11.8508C65.4288 11.8508 64.8587 12.1995 64.4167 12.8969C63.9979 13.5944 63.7886 14.4661 63.7886 15.5123C63.7886 16.9071 63.963 18.1276 64.312 19.1737L67.5574 17.2209C68.1622 16.8025 68.4647 16.2097 68.4647 15.4425C68.4647 14.6753 68.267 13.885 67.8715 13.0713C67.4993 12.2576 66.9176 11.8508 66.1266 11.8508Z" fill="#134A45"/>
<path d="M81.5644 27.5776C79.7963 27.5776 78.4004 27.0197 77.3768 25.9038C76.3764 24.788 75.8762 23.1955 75.8762 21.1265V12.8621H74.5502C74.3176 12.8621 74.1198 12.7923 73.9569 12.6528C73.8174 12.4902 73.7475 12.2925 73.7475 12.0601V11.2929C73.7475 10.7582 74.0151 10.4909 74.5502 10.4909H75.2132C76.2834 10.4909 77.2023 10.1771 77.97 9.54935C78.7377 8.89843 79.2379 8.03828 79.4705 6.96891C79.5869 6.36448 79.901 6.06227 80.4128 6.06227H81.2154C81.8435 6.06227 82.1576 6.36448 82.1576 6.96891V10.4909H85.7519C85.9846 10.4909 86.1707 10.5723 86.3103 10.735C86.4732 10.8744 86.5546 11.0604 86.5546 11.2929V12.0601C86.5546 12.2925 86.4732 12.4902 86.3103 12.6528C86.1707 12.7923 85.9846 12.8621 85.7519 12.8621H82.1576V21.2311C82.1576 21.8123 82.3088 22.2772 82.6113 22.6259C82.9137 22.9514 83.2859 23.1141 83.7279 23.1141C84.7283 23.1141 85.4961 22.6841 86.0312 21.8239C86.1939 21.6147 86.3801 21.4985 86.5894 21.4752C86.7988 21.4287 86.9734 21.4636 87.1129 21.5798C87.2758 21.696 87.3572 21.8588 87.3572 22.068C87.3572 23.5326 86.8338 24.8228 85.7869 25.9386C84.7632 27.0313 83.3557 27.5776 81.5644 27.5776Z" fill="#134A45"/>
<path d="M88.5448 25.7607C88.7006 25.7607 88.8499 25.7998 88.9931 25.8781C89.1362 25.9556 89.2485 26.0671 89.3298 26.2125C89.4121 26.358 89.4532 26.5103 89.4532 26.6691C89.4532 26.8273 89.4129 26.9782 89.3323 27.1221C89.2524 27.2653 89.1406 27.3771 88.9967 27.4577C88.8535 27.5376 88.7029 27.5776 88.5448 27.5776C88.3867 27.5776 88.2357 27.5376 88.0918 27.4577C87.9487 27.3771 87.8368 27.2653 87.7561 27.1221C87.6763 26.9782 87.6364 26.8273 87.6364 26.6691C87.6364 26.5103 87.6771 26.358 87.7585 26.2125C87.8407 26.0671 87.9534 25.9556 88.0965 25.8781C88.2396 25.7998 88.389 25.7607 88.5448 25.7607ZM88.546 25.9386C88.4211 25.9386 88.3013 25.9698 88.1867 26.0323C88.072 26.0948 87.9815 26.1845 87.9151 26.3015C87.8495 26.4185 87.8167 26.5411 87.8167 26.6691C87.8167 26.7965 87.8486 26.9178 87.9127 27.0332C87.9776 27.1486 88.0677 27.2388 88.1831 27.3036C88.2985 27.3685 88.4195 27.4009 88.546 27.4009C88.6733 27.4009 88.7942 27.3685 88.9089 27.3036C89.0243 27.2388 89.1144 27.1486 89.1793 27.0332C89.2441 26.9178 89.2766 26.7965 89.2766 26.6691C89.2766 26.5411 89.2433 26.4185 89.1769 26.3015C89.1112 26.1845 89.0207 26.0948 88.9053 26.0323C88.7906 25.9698 88.6709 25.9386 88.546 25.9386ZM88.1344 27.1554V26.1912H88.3301C88.5136 26.1912 88.6164 26.192 88.6385 26.1936C88.7033 26.1991 88.7535 26.2121 88.7891 26.2327C88.8255 26.2525 88.8555 26.2833 88.8793 26.3252C88.9037 26.3664 88.916 26.4121 88.916 26.4628C88.916 26.5324 88.8931 26.592 88.8472 26.6418C88.8021 26.6909 88.7385 26.7214 88.6562 26.7332C88.6856 26.7442 88.708 26.7565 88.7239 26.77C88.7397 26.7825 88.7614 26.8071 88.7891 26.8435C88.7962 26.8529 88.82 26.8921 88.8603 26.9608L88.9741 27.1554H88.7322L88.6515 26.9988C88.5969 26.8936 88.5519 26.8277 88.5163 26.8008C88.4808 26.7731 88.4357 26.7592 88.3811 26.7592H88.3301V27.1554H88.1344ZM88.3301 26.6075H88.4096C88.5227 26.6075 88.5926 26.6031 88.6195 26.5944C88.6472 26.5857 88.6689 26.5707 88.6847 26.5494C88.7005 26.5272 88.7085 26.5023 88.7085 26.4746C88.7085 26.4478 88.7005 26.4241 88.6847 26.4035C88.6697 26.3822 88.648 26.3671 88.6195 26.3584C88.591 26.3489 88.5211 26.3442 88.4096 26.3442H88.3301V26.6075Z" fill="#134A45"/>
</svg>
