<svg width="115" height="35" viewBox="0 0 115 35" fill="none" xmlns="http://www.w3.org/2000/svg">
<path d="M24.2206 12.543C24.9122 12.543 25.258 12.8284 25.258 13.3993V13.5795C25.258 14.0002 24.8219 14.5862 23.95 15.3373C23.078 16.0885 22.5067 16.7947 22.2361 17.4556L16.4177 33.0049C16.147 33.7861 15.6208 34.1767 14.8391 34.1767H10.87C10.1784 34.1767 9.63712 33.7861 9.24623 33.0049L2.39049 17.4556C2.14993 16.9148 1.68386 16.2537 0.992279 15.4725C0.330759 14.6613 0 14.0303 0 13.5795V13.3993C0 12.8284 0.345794 12.543 1.03738 12.543H11.4112C12.0727 12.543 12.4035 12.8434 12.4035 13.4443V13.6246C12.4035 13.9251 12.2682 14.2857 11.9975 14.7063C11.7269 15.0969 11.5315 15.4576 11.4112 15.788C11.321 16.1185 11.3962 16.7195 11.6367 17.5908L15.5156 27.7768L18.8082 18.7176C19.1389 17.4556 19.1841 16.5843 18.9434 16.1036C18.7029 15.5928 18.3421 15.127 17.861 14.7063C17.4099 14.2557 17.1845 13.8951 17.1845 13.6246V13.4443C17.1845 12.8434 17.5303 12.543 18.2219 12.543H24.2206Z" fill="#CBD0D5"/>
<path d="M30.4471 9.88371C28.9136 9.88371 27.6658 9.46306 26.7035 8.62175C25.7413 7.75038 25.2603 6.66869 25.2603 5.37667C25.2603 4.08465 25.7413 3.01799 26.7035 2.17667C27.6658 1.30531 28.9136 0.869629 30.4471 0.869629C31.9506 0.869629 33.1835 1.30531 34.1457 2.17667C35.1079 3.01799 35.5889 4.08465 35.5889 5.37667C35.5889 6.66869 35.1079 7.75038 34.1457 8.62175C33.1835 9.46306 31.9506 9.88371 30.4471 9.88371ZM25.6211 34.1767C24.8994 34.1767 24.5386 33.8912 24.5386 33.3204V33.14C24.5386 32.7794 24.8392 32.2236 25.4407 31.4725C26.042 30.7213 26.3427 29.9701 26.3427 29.219V20.6556C26.3427 19.8744 26.042 19.1232 25.4407 18.4021C24.8392 17.6509 24.5386 17.14 24.5386 16.8696V16.6894C24.5386 16.3288 24.8844 15.9832 25.576 15.6527L32.3866 12.3175C33.018 12.0471 33.5141 12.017 33.875 12.2274C34.2358 12.4377 34.4162 12.7833 34.4162 13.264V29.219C34.4162 29.9701 34.747 30.7213 35.4086 31.4725C36.1001 32.2236 36.446 32.7794 36.446 33.14V33.3204C36.446 33.8912 36.07 34.1767 35.3183 34.1767H25.6211Z" fill="#CBD0D5"/>
<path d="M49.3272 34.6277C45.8393 34.6277 42.8774 33.561 40.4418 31.4277C38.0364 29.2644 36.8336 26.56 36.8336 23.315C36.8336 20.0699 38.0364 17.3958 40.4418 15.2925C42.8474 13.1592 45.704 12.0925 49.0115 12.0925C52.4394 12.0925 55.3561 13.1592 57.7616 15.2925C60.1671 17.4258 61.37 20.13 61.37 23.4052C61.37 26.6502 60.1972 29.3394 57.8519 31.4728C55.5064 33.5761 52.6649 34.6277 49.3272 34.6277ZM50.2744 32.4192C52.1988 32.4192 53.1611 30.5713 53.1611 26.8756C53.1611 25.5235 52.9656 23.916 52.5747 22.053C52.2139 20.1902 51.5825 18.4324 50.6804 16.7798C49.8084 15.1273 48.8311 14.301 47.7487 14.301C46.6962 14.301 45.9445 14.7667 45.4934 15.6981C45.0424 16.6296 44.8169 18.0417 44.8169 19.9347C44.8169 20.9263 44.9372 22.0981 45.1777 23.4502C45.4183 24.8024 45.749 26.1695 46.1701 27.5517C46.591 28.9038 47.1623 30.0605 47.884 31.0221C48.6357 31.9535 49.4324 32.4192 50.2744 32.4192Z" fill="#CBD0D5"/>
<path d="M62.9881 34.1768C62.2965 34.1768 61.9508 33.8913 61.9508 33.3205V33.1401C61.9508 32.7796 62.2364 32.2388 62.8077 31.5177C63.4091 30.7665 63.7098 30.0152 63.7098 29.2642V8.66694C63.7098 7.88571 63.4091 7.13455 62.8077 6.41341C62.2364 5.66224 61.9508 5.13643 61.9508 4.83595V4.65567C61.9508 4.32516 62.2815 3.97962 62.943 3.61905L69.7536 0.283839C70.3852 0.0134163 70.8813 -0.00160676 71.2421 0.238769C71.633 0.449096 71.8284 0.779614 71.8284 1.23032V29.2642C71.8284 30.0152 72.1592 30.7665 72.8207 31.5177C73.4822 32.2388 73.813 32.7796 73.813 33.1401V33.3205C73.813 33.8913 73.4521 34.1768 72.7305 34.1768H62.9881Z" fill="#CBD0D5"/>
<path d="M92.9198 27.0559C93.2506 26.7254 93.6114 26.6352 94.0023 26.7855C94.4232 26.9056 94.6187 27.2061 94.5887 27.6869C94.5286 29.1892 93.6565 30.7216 91.9727 32.284C90.2888 33.8465 88.1088 34.6277 85.4326 34.6277C82.1551 34.6277 79.4789 33.5761 77.4042 31.4728C75.3294 29.3694 74.292 26.6202 74.292 23.2249C74.292 19.9798 75.3746 17.3206 77.5396 15.2474C79.7345 13.1442 82.3505 12.0925 85.3876 12.0925C88.1238 12.0925 90.2437 12.7235 91.7471 13.9855C93.2506 15.2474 94.0023 16.6746 94.0023 18.2672C94.0023 19.5291 93.4159 20.4606 92.2432 21.0615L83.2677 26.1094C84.5005 28.0625 86.2144 29.039 88.4094 29.039C89.3416 29.039 90.2136 28.8587 91.0255 28.4981C91.8674 28.1075 92.4988 27.6267 92.9198 27.0559ZM84.5756 14.301C83.6736 14.301 82.9369 14.7517 82.3656 15.653C81.8243 16.5545 81.5538 17.6812 81.5538 19.0333C81.5538 20.8362 81.7792 22.4137 82.2303 23.7657L86.4248 21.2418C87.2067 20.701 87.5976 19.9347 87.5976 18.9432C87.5976 17.9516 87.342 16.9301 86.8308 15.8784C86.3498 14.8267 85.5979 14.301 84.5756 14.301Z" fill="#CBD0D5"/>
<path d="M104.529 34.6275C102.244 34.6275 100.439 33.9064 99.1164 32.4641C97.8234 31.022 97.1769 28.9637 97.1769 26.2895V15.6078H95.4629C95.1623 15.6078 94.9067 15.5176 94.6962 15.3374C94.5158 15.1271 94.4255 14.8716 94.4255 14.5712V13.5796C94.4255 12.8885 94.7714 12.543 95.4629 12.543H96.32C97.7031 12.543 98.8908 12.1374 99.8831 11.3261C100.875 10.4848 101.522 9.37308 101.822 7.99093C101.973 7.2097 102.379 6.81909 103.04 6.81909H104.078C104.89 6.81909 105.296 7.2097 105.296 7.99093V12.543H109.941C110.242 12.543 110.482 12.6482 110.663 12.8585C110.873 13.0388 110.979 13.2792 110.979 13.5796V14.5712C110.979 14.8716 110.873 15.1271 110.663 15.3374C110.482 15.5176 110.242 15.6078 109.941 15.6078H105.296V26.4247C105.296 27.1759 105.491 27.7768 105.882 28.2275C106.273 28.6482 106.754 28.8585 107.325 28.8585C108.618 28.8585 109.61 28.3027 110.302 27.191C110.512 26.9205 110.753 26.7703 111.024 26.7403C111.294 26.6801 111.52 26.7252 111.7 26.8755C111.911 27.0256 112.016 27.236 112.016 27.5064C112.016 29.3994 111.339 31.067 109.986 32.5092C108.663 33.9215 106.844 34.6275 104.529 34.6275Z" fill="#CBD0D5"/>
<path d="M113.551 32.2791C113.752 32.2791 113.945 32.3296 114.13 32.4308C114.315 32.5309 114.46 32.6751 114.566 32.863C114.672 33.051 114.725 33.2478 114.725 33.4531C114.725 33.6576 114.673 33.8527 114.569 34.0386C114.466 34.2237 114.321 34.3682 114.135 34.4724C113.95 34.5757 113.755 34.6273 113.551 34.6273C113.347 34.6273 113.151 34.5757 112.965 34.4724C112.781 34.3682 112.636 34.2237 112.532 34.0386C112.428 33.8527 112.377 33.6576 112.377 33.4531C112.377 33.2478 112.429 33.051 112.535 32.863C112.641 32.6751 112.787 32.5309 112.972 32.4308C113.156 32.3296 113.35 32.2791 113.551 32.2791ZM113.552 32.509C113.391 32.509 113.236 32.5493 113.088 32.63C112.94 32.7108 112.823 32.8268 112.737 32.978C112.652 33.1293 112.61 33.2877 112.61 33.4531C112.61 33.6177 112.651 33.7746 112.734 33.9237C112.818 34.0729 112.934 34.1894 113.083 34.2732C113.233 34.357 113.389 34.3989 113.552 34.3989C113.717 34.3989 113.873 34.357 114.022 34.2732C114.171 34.1894 114.287 34.0729 114.371 33.9237C114.455 33.7746 114.497 33.6177 114.497 33.4531C114.497 33.2877 114.454 33.1293 114.368 32.978C114.283 32.8268 114.166 32.7108 114.017 32.63C113.869 32.5493 113.714 32.509 113.552 32.509ZM113.021 34.0816V32.8354H113.273C113.511 32.8354 113.643 32.8365 113.672 32.8386C113.756 32.8456 113.821 32.8625 113.867 32.8891C113.914 32.9146 113.953 32.9545 113.983 33.0086C114.015 33.0618 114.031 33.121 114.031 33.1865C114.031 33.2764 114.001 33.3535 113.942 33.4179C113.884 33.4813 113.801 33.5207 113.695 33.536C113.733 33.5502 113.762 33.5661 113.782 33.5835C113.803 33.5997 113.831 33.6315 113.867 33.6785C113.876 33.6907 113.907 33.7414 113.959 33.8302L114.106 34.0816H113.793L113.689 33.8793C113.618 33.7433 113.56 33.6581 113.514 33.6233C113.468 33.5876 113.41 33.5696 113.339 33.5696H113.273V34.0816H113.021ZM113.273 33.3734H113.376C113.522 33.3734 113.613 33.3678 113.647 33.3566C113.683 33.3454 113.711 33.3259 113.732 33.2984C113.752 33.2697 113.763 33.2375 113.763 33.2018C113.763 33.167 113.752 33.1364 113.732 33.1098C113.712 33.0823 113.684 33.0628 113.647 33.0515C113.611 33.0393 113.52 33.0332 113.376 33.0332H113.273V33.3734Z" fill="#CBD0D5"/>
</svg>
