<svg width="150" height="38" viewBox="0 0 150 38" fill="none" xmlns="http://www.w3.org/2000/svg">
<path d="M35.3539 6.26517C36.3436 6.26517 37.155 7.07656 37.155 8.06625C37.155 9.05594 36.3436 9.86732 35.3539 9.86732C34.3642 9.86732 33.5528 9.05594 33.5528 8.06625C33.5528 7.07656 34.3642 6.26517 35.3539 6.26517Z" fill="#134A45"/>
<path d="M98.8608 6.26517C99.8509 6.26517 100.662 7.07656 100.662 8.06625C100.662 9.05594 99.8509 9.86732 98.8608 9.86732C97.8708 9.86732 97.0601 9.05594 97.0601 8.06625C97.0574 7.07656 97.8708 6.26517 98.8608 6.26517Z" fill="#134A45"/>
<path d="M6.36234 22.3785C6.36234 23.6366 6.29259 25.1787 7.27161 26.4393C7.9019 27.2452 8.98683 27.9788 10.7718 27.9788C12.8719 27.9788 14.2358 27.1393 15.0417 25.3544C15.6358 24.0602 15.8477 22.4508 15.8477 20.033C15.8477 18.0724 15.8116 16.0085 14.4477 14.5386C13.8535 13.9084 12.8383 13.2781 11.2265 13.2781C10.2112 13.2781 9.30198 13.6268 8.39271 14.2571C7.41369 14.9235 6.7834 15.6933 6.36234 16.6025V22.3785ZM6.53799 14.7479C8.6381 12.6839 10.529 12.5083 11.9626 12.5083C13.2929 12.5083 14.9023 12.6142 16.5814 14.2932C18.3301 16.0447 18.715 18.1783 18.715 19.9633C18.715 23.1122 17.6999 25.3181 16.4419 26.6124C14.5871 28.5032 12.1719 28.7486 10.8777 28.7486C9.09274 28.7486 7.34394 28.3998 6.11694 27.4544C3.8076 25.6695 3.77143 22.766 3.77143 21.6811V8.14792C3.77143 7.72944 3.77143 7.02683 2.86216 7.02683L0.622559 7.06299V6.2932L2.9319 6.15371C3.73785 6.11755 4.19248 6.01422 4.82277 6.01422C6.29259 6.01422 6.36234 6.92349 6.36234 7.45046V11.6998C6.36234 13.0301 6.22284 14.332 6.18669 14.6471L6.53799 14.7479Z" fill="#134A45"/>
<path d="M18.5523 13.1388L20.513 12.9993C21.3525 12.9296 21.6676 12.8599 22.334 12.8599C23.9098 12.8599 23.9433 13.8054 23.9433 14.2961V16.3962H24.2947C24.5737 15.7324 25.1006 14.681 25.5191 14.0869C26.0099 13.4566 26.9191 12.5112 28.3193 12.5112C29.5798 12.5112 29.8588 13.1776 29.8588 13.6322C29.8588 14.2625 29.2647 15.0323 27.7251 15.0323C27.0948 15.0323 26.6738 14.9625 26.1855 14.7508C25.625 15.2054 25.1367 15.7995 24.7157 17.1298C24.4703 17.9358 24.2972 18.8451 24.2972 19.8603V26.5454C24.2972 27.0698 24.2611 27.4212 25.5579 27.5244L27.0974 27.6278V28.3976C25.8369 28.2942 24.5065 28.2581 23.1426 28.2581C21.882 28.2581 20.5879 28.2942 19.2575 28.3976V27.6278L20.7274 27.5244C21.6366 27.4547 21.7064 27.0337 21.7064 26.5454V14.9936C21.7064 14.5751 21.7064 13.8725 20.7971 13.8725L18.5575 13.9086V13.1388H18.5523Z" fill="#134A45"/>
<path d="M33.2171 12.9992C34.023 12.963 34.4776 12.8597 35.108 12.8597C36.5778 12.8597 36.6475 13.769 36.6475 14.2959V26.5453C36.6475 27.036 36.7173 27.4545 37.6265 27.5243L39.0963 27.6302V28.3999C37.8358 28.3302 36.6114 28.2604 35.3507 28.2604C34.0902 28.2604 32.8296 28.3302 31.6052 28.3999V27.6302L33.0751 27.5243C33.9843 27.4545 34.0541 27.0335 34.0541 26.5453V14.9934C34.0541 14.5749 34.0541 13.8723 33.1448 13.8723L30.9051 13.9085V13.1387L33.2171 12.9992Z" fill="#134A45"/>
<path d="M52.2782 16.4298C51.857 15.5205 51.2294 14.7844 50.5629 14.2961C49.6175 13.5961 48.4628 13.281 47.3779 13.281C45.1383 13.281 42.5499 14.6113 42.5499 21.1208C42.5499 22.6268 42.7256 23.9546 43.1802 25.0756C43.7407 26.4422 44.9652 27.9817 47.4141 27.9817C49.1292 27.9817 50.1444 27.1422 50.9143 26.2329C52.0353 24.9026 52.2782 23.8176 52.2782 23.0478V16.4298ZM52.1051 26.0185C50.426 28.643 48.22 28.7489 47.1712 28.7489C44.1619 28.7489 42.2709 27.5607 41.1524 26.0547C39.8919 24.3756 39.6826 22.415 39.6826 20.9452C39.6826 18.8786 39.9978 16.6752 41.6071 14.8903C42.9012 13.4205 44.8257 12.5112 47.0317 12.5112C48.468 12.5112 50.847 12.8961 52.5623 15.0659H52.7018C52.8077 14.4718 52.7353 14.123 52.911 13.7381C53.2623 12.8986 54.0657 12.8625 54.6598 12.8625H57.3902V13.6322L56.1296 13.702C55.5355 13.7381 54.9052 13.7381 54.9052 14.7508V28.4441C54.9052 32.9233 53.2262 37.4387 47.5561 37.4387C46.5073 37.4387 44.4072 37.2992 42.5861 35.6537C41.6407 34.7805 41.3953 34.0082 41.3953 33.4502C41.3953 32.5746 42.0256 32.2956 42.4441 32.2956C43.5987 32.2956 44.1954 33.7654 44.4046 34.3259C44.756 35.2714 45.2106 36.6714 47.6956 36.6714C48.6048 36.6714 50.0747 36.4597 51.0899 35.2352C52.3866 33.7292 52.3866 31.3166 52.3866 30.756V26.0185H52.1051Z" fill="#134A45"/>
<path d="M56.4321 6.2932L58.7414 6.15371C59.6506 6.08397 59.9658 6.01422 60.596 6.01422C62.1356 6.01422 62.1718 6.95966 62.1718 7.45046V15.8354H62.3113C62.6626 15.311 63.3601 14.4715 64.0962 13.8412C65.2509 12.8622 66.4056 12.5108 67.6662 12.5108C69.4847 12.5108 70.9907 13.0017 72.1092 14.2596C73.2303 15.5203 73.3336 16.7111 73.3336 17.8296V26.5452C73.3336 27.0359 73.4033 27.4544 74.3126 27.5242L75.7825 27.6275V28.3973C74.5218 28.3276 73.2974 28.2578 72.0369 28.2578C70.7789 28.2578 69.5183 28.3276 68.2938 28.3973V27.6275L69.7637 27.5242C70.673 27.4544 70.7428 27.0334 70.7428 26.5452V17.3027C70.7428 16.0085 70.3242 15.2025 69.9367 14.7143C69.1308 13.7689 68.0485 13.6294 67.2064 13.6294C66.2609 13.6294 65.4576 13.8747 64.5457 14.5748C62.3758 16.29 62.1667 18.4237 62.1667 19.4389V26.5426C62.1667 27.0334 62.2364 27.4519 63.1482 27.5216L64.618 27.6249V28.3947C63.3575 28.3249 62.1331 28.2552 60.8725 28.2552C59.6119 28.2552 58.3513 28.3249 57.1269 28.3947V27.6249L58.5967 27.5216C59.506 27.4519 59.5757 27.0308 59.5757 26.5426V8.14792C59.5757 7.72944 59.5757 7.02683 58.6665 7.02683L56.4268 7.06299V6.2932H56.4321Z" fill="#134A45"/>
<path d="M80.4631 6.40979V12.86H84.8027V13.6297H80.4631V25.1093C80.4631 25.6698 80.569 27.77 82.3514 27.77C83.1573 27.77 83.7153 27.5246 84.206 26.7548C84.6607 26.0547 84.7666 25.3909 84.8002 24.621H85.5002C85.4641 26.1607 84.8002 28.749 82.1059 28.749C80.4604 28.749 79.5176 28.0851 78.957 27.4212C77.8721 26.127 77.8721 24.4119 77.8721 23.1151V13.6297H74.9324V12.86H77.8851V6.40979H80.4631Z" fill="#134A45"/>
<path d="M88.3028 6.15371C89.1087 6.11755 89.5634 6.01422 90.1937 6.01422C91.6635 6.01422 91.7333 6.92349 91.7333 7.45046V26.5452C91.7333 27.0359 91.803 27.4544 92.7125 27.5242L94.1824 27.6275V28.3973C92.8515 28.2914 91.5576 28.2578 90.297 28.2578C88.9331 28.2578 87.6028 28.294 86.3422 28.3973V27.6275L87.812 27.5242C89.0365 27.4544 89.1423 27.0695 89.1423 26.5452V8.14792C89.1423 7.72944 89.1423 7.02683 88.2304 7.02683L85.9909 7.06299V6.2932L88.3028 6.15371Z" fill="#134A45"/>
<path d="M96.7243 12.9992C97.5302 12.963 97.9848 12.8597 98.615 12.8597C100.085 12.8597 100.154 13.769 100.154 14.2959V26.5453C100.154 27.036 100.224 27.4545 101.136 27.5243L102.606 27.6302V28.3999C101.345 28.3302 100.121 28.2604 98.8601 28.2604C97.5997 28.2604 96.342 28.3302 95.1144 28.3999V27.6302L96.5844 27.5243C97.4936 27.4545 97.5631 27.0335 97.5631 26.5453V14.9934C97.5631 14.5749 97.5631 13.8723 96.6539 13.8723L94.4147 13.9085V13.1387L96.7243 12.9992Z" fill="#134A45"/>
<path d="M122.156 28.3973C120.897 28.3275 119.67 28.2578 118.412 28.2578C117.151 28.2578 115.891 28.3275 114.667 28.3973V27.6275L116.136 27.5216C117.048 27.4519 117.116 27.0309 117.116 26.5426V17.3388C117.116 16.4631 116.906 15.3782 116.346 14.7143C115.928 14.2236 115.122 13.6294 113.825 13.6294C112.634 13.6294 111.724 14.0143 110.885 14.7505C109.624 15.8716 108.575 17.7263 108.575 19.86V26.5452C108.575 27.036 108.646 27.4545 109.555 27.5243L111.025 27.6302V28.3999C109.766 28.3302 108.539 28.2604 107.279 28.2604C106.02 28.2604 104.76 28.3302 103.536 28.3999V27.6302L105.006 27.5243C105.915 27.4545 105.985 27.0334 105.985 26.5452V14.9933C105.985 14.5748 105.985 13.8722 105.076 13.8722L102.835 13.9083V13.1386L104.83 12.9991C105.53 12.9629 106.16 12.8596 106.718 12.8596C108.188 12.8596 108.258 13.7689 108.258 14.2958V16.3598H108.606C108.816 16.0085 109.655 14.7143 110.531 13.9446C111.301 13.2446 112.561 12.5083 114.346 12.5083C116.304 12.5083 117.671 13.3143 118.474 14.2236C119.595 15.4841 119.699 16.7421 119.699 17.827V26.5426C119.699 27.0334 119.768 27.4519 120.678 27.5216L122.147 27.6275V28.3973H122.156Z" fill="#134A45"/>
<path d="M132.947 17.7237C133.018 16.8119 132.914 15.3085 131.899 14.2933C130.99 13.3814 129.835 13.2781 129.204 13.2781C128.292 13.2781 127.175 13.4537 126.126 14.6782C125.392 15.5539 125.004 16.6724 124.935 17.7237H132.947ZM129.553 28.7487C124.477 28.7487 121.783 24.83 121.783 20.6995C121.783 16.7809 123.847 12.5083 129.377 12.5083C133.255 12.5083 135.551 15.0656 135.541 18.0363C135.541 18.1473 135.502 18.2558 135.427 18.3385C135.342 18.4366 135.216 18.4934 135.087 18.4934H124.828C124.759 19.2633 124.653 20.3482 124.653 21.4693C124.653 27.8394 128.642 27.9091 129.972 27.9091C131.408 27.9091 133.542 27.6275 135.047 23.4634L135.712 23.8484C134.066 28.294 131.511 28.7487 129.553 28.7487Z" fill="#134A45"/>
<path d="M126.879 5.95734L126.175 6.10834L127.076 10.3143L127.78 10.1632L126.879 5.95734Z" fill="#134A45"/>
<path d="M136.642 7.75491L134.075 11.3202L134.661 11.7413L137.227 8.17608L136.642 7.75491Z" fill="#134A45"/>
<path d="M131.585 5.95974L130.684 10.1656L131.389 10.3168L132.291 6.11082L131.585 5.95974Z" fill="#134A45"/>
<path d="M136.328 1.87167L132.44 10.5856L133.098 10.8793L136.987 2.16536L136.328 1.87167Z" fill="#134A45"/>
<path d="M129.592 0.850586H128.871V10.0776H129.592V0.850586Z" fill="#134A45"/>
<path d="M140.568 11.1993L136.727 13.5814L137.108 14.1939L140.947 11.8118L140.568 11.1993Z" fill="#134A45"/>
<path d="M148.24 10.9628L137.641 15.0383L137.899 15.711L148.499 11.6355L148.24 10.9628Z" fill="#134A45"/>
<path d="M142.945 5.43334L135.522 12.3238L136.013 12.852L143.435 5.96159L142.945 5.43334Z" fill="#134A45"/>
<path d="M142.751 15.7827L138.221 16.6201L138.352 17.3289L142.881 16.4914L142.751 15.7827Z" fill="#134A45"/>
<path d="M149.413 18.2924H138.468V19.0131H149.413V18.2924Z" fill="#134A45"/>
<path d="M115.526 5.43093L115.036 5.95919L122.457 12.8496L122.949 12.3214L115.526 5.43093Z" fill="#134A45"/>
<path d="M121.832 7.75097L121.247 8.17207L123.813 11.7378L124.398 11.3167L121.832 7.75097Z" fill="#134A45"/>
<path d="M122.108 1.8172L121.45 2.11081L125.364 10.8813L126.021 10.5877L122.108 1.8172Z" fill="#134A45"/>
</svg>
