<svg width="107" height="37" viewBox="0 0 107 37" fill="none" xmlns="http://www.w3.org/2000/svg">
<path d="M104.617 4.0445C104.282 4.0445 103.947 4.1327 103.665 4.29147C103.488 4.37967 103.347 4.50315 103.206 4.64428C102.853 5.01473 102.624 5.50866 102.624 6.07316C102.624 6.39069 102.695 6.70822 102.836 6.97283C102.853 7.00811 102.871 7.04339 102.906 7.09631C102.959 7.18451 103.012 7.27271 103.083 7.34327C103.171 7.44912 103.259 7.53732 103.347 7.60788C103.682 7.89013 104.123 8.04889 104.617 8.04889C105.729 8.04889 106.646 7.14923 106.646 6.05552C106.646 4.96181 105.746 4.0445 104.617 4.0445Z" fill="#134A45"/>
<path d="M49.7031 6.07238C49.7031 4.92613 50.6201 3.9915 51.7663 3.9915C52.9126 3.9915 53.8472 4.92613 53.8472 6.07238C53.8472 7.20098 52.9126 8.13561 51.7663 8.13561C50.6201 8.11798 49.7031 7.21862 49.7031 6.07238ZM38.1877 25.6467C37.6058 26.4755 35.4015 28.5211 33.9554 28.5211C32.5094 28.5211 31.7159 27.5688 31.7159 25.823C31.7159 25.3645 31.7335 24.7826 31.7688 24.1654C30.3404 25.9465 27.5012 28.5564 25.3674 28.5564C22.2638 28.5564 20.8883 26.5108 20.8883 24.4652C20.8883 21.8376 23.6216 19.5628 29.4939 17.2703L32.0686 16.2828C31.8922 12.1386 30.746 11.3275 28.7885 11.3275C26.6195 11.3275 25.8259 12.8617 25.1735 14.0961C25.0147 14.4135 24.856 14.6957 24.6973 14.9249C24.3094 15.4892 23.8685 15.6656 22.9162 15.6656C21.9111 15.6656 21.2586 15.2423 21.2586 14.5722C21.2586 14.0961 21.6113 13.3554 22.5812 12.7206C23.9214 11.8565 26.8311 10.3752 29.3176 10.3752C33.1795 10.3752 35.3133 12.6677 35.3133 16.8118C35.3133 18.0991 35.2251 19.8626 35.1546 21.4144C35.1017 22.5959 35.0488 23.6187 35.0488 24.1654C35.0488 25.8936 35.2428 26.7048 35.666 26.7048C35.9834 26.7048 36.7064 25.9112 37.2002 25.0118C37.3765 24.7297 37.694 24.6592 37.9585 24.8179C38.2759 25.0295 38.3464 25.3645 38.1877 25.6467ZM32.0333 17.2174L29.7584 18.2049C24.8737 20.2505 23.8685 21.2028 23.8685 23.4953C23.8685 25.1529 25.5791 26.4402 27.0427 26.4402C27.7834 26.4402 28.8767 25.8054 30.023 24.7121C30.9576 23.8127 31.7688 22.737 31.9098 22.208L31.8922 22.0845C31.9451 21.4849 32.0333 19.8978 32.0333 17.4466V17.2174ZM17.767 10.9395V25.8407C17.767 32.0656 12.4766 36.5801 8.91444 36.5801C6.05765 36.5801 3.90624 35.4162 3.90624 34.3758C3.90624 33.3882 4.78796 32.5065 5.81077 32.5065C6.46324 32.5065 7.16862 32.8945 7.99745 33.3353C8.94971 33.8467 10.043 34.4287 11.1717 34.4287C12.2297 34.4287 14.6809 34.4287 14.6809 27.7452V27.0222C13.2349 27.8157 11.7007 28.2919 9.91961 28.2919C4.57635 28.2919 0.855469 24.7826 0.855469 19.7568C0.855469 14.6075 5.08775 10.5692 10.5015 10.5692C12.3179 10.5692 13.9579 10.9924 15.3158 11.7507C15.3687 11.6625 15.4392 11.5743 15.4921 11.5038C16.1622 10.5163 16.8676 10.3576 17.2556 10.3576C17.7493 10.3928 17.767 10.7984 17.767 10.9395ZM14.6809 14.678C13.6405 12.844 12.071 11.5391 10.0607 11.5391C7.48605 11.5391 4.43527 12.8793 4.43527 19.2277C4.43527 23.2131 6.71013 27.3396 10.5192 27.3396C12.3532 27.3396 13.8521 26.5637 14.6809 25.1353V14.678ZM101.743 19.2101C101.743 23.6011 97.9864 28.5035 92.6078 28.5035C87.5115 28.5035 83.9493 24.9237 83.9493 19.7744C83.9493 14.5017 87.9876 10.3752 93.1369 10.3752C98.198 10.3928 101.743 14.0255 101.743 19.2101ZM98.3743 19.7568C98.3743 15.7185 96.2229 11.3627 92.7313 11.3627C90.2801 11.3627 87.3704 12.7206 87.3704 19.2101C87.3704 23.2837 89.5394 27.4983 93.1721 27.4983C96.4874 27.5159 98.3743 24.6768 98.3743 19.7568ZM64.0752 27.2514C62.4528 27.2514 62.4175 27.2514 62.4175 23.8656V0.76439C62.4175 0.640948 62.347 0.482236 62.1001 0.34116C61.9414 0.252987 61.5358 0.129546 61.3242 0.252987C60.319 0.817291 59.067 1.41687 57.3564 1.73429C57.2154 1.75192 57.0743 1.82246 56.9861 1.92827C56.8979 2.03407 56.8627 2.15752 56.8803 2.26332C56.898 2.38676 56.9685 2.5102 57.0743 2.58074C57.1801 2.63365 57.2859 2.66892 57.427 2.65128C58.1324 2.52784 58.6261 2.4573 58.873 2.65128C59.1375 2.88053 59.2962 3.56828 59.2962 4.97904V23.8832C59.2962 27.2691 59.1552 27.2691 58.0618 27.2691C57.7268 27.2691 57.5328 27.4983 57.5328 27.7276C57.5328 27.9568 57.7091 28.1861 58.0266 28.1861C58.5909 28.1861 59.3844 28.1684 60.0898 28.1508H60.1251C60.6012 28.1331 61.0421 28.1331 61.2537 28.1331C61.4653 28.1331 61.8003 28.1508 62.2236 28.1508C62.7879 28.1684 63.4756 28.1861 64.0576 28.1861C64.3926 28.1861 64.569 27.9568 64.569 27.7276C64.569 27.4807 64.4103 27.2514 64.0752 27.2514ZM45.7177 27.2514C44.0953 27.2514 44.0248 27.2514 44.0248 23.8656V0.76439C44.0248 0.640948 43.9895 0.482236 43.7426 0.34116C43.5839 0.252987 43.1959 0.129546 42.9843 0.252987C41.9791 0.817291 40.7447 1.41687 39.0342 1.73429C38.8931 1.75192 38.752 1.82246 38.6639 1.92827C38.5757 2.03407 38.5404 2.15752 38.5581 2.26332C38.5757 2.38676 38.6462 2.5102 38.752 2.58074C38.8578 2.63365 38.9636 2.66892 39.1224 2.65128C39.8277 2.52784 40.3039 2.4573 40.5331 2.65128C40.7976 2.88053 40.9211 3.56828 40.9211 4.97904V23.8832C40.9211 27.2691 40.7976 27.2691 39.7043 27.2691C39.3692 27.2691 39.1929 27.4983 39.1929 27.7276C39.1929 27.9568 39.3692 28.1861 39.7043 28.1861C40.2686 28.1861 41.0622 28.1684 41.7675 28.1508H41.8028C42.2789 28.1331 42.7198 28.1331 42.9314 28.1331C43.143 28.1331 43.4781 28.1508 43.9013 28.1508C44.4656 28.1684 45.1534 28.1861 45.7353 28.1861C46.0704 28.1861 46.2291 27.9568 46.2291 27.7276C46.2291 27.4807 46.0351 27.2514 45.7177 27.2514ZM82.6443 22.7546C81.2159 26.4931 77.7948 28.5211 74.1445 28.5211C68.4486 28.5211 65.8563 24.6239 65.8563 20.5327C65.8563 15.3834 70.1944 10.3928 75.9961 10.3928C79.7875 10.3928 81.8684 12.5971 81.8684 14.9249C81.8684 16.8471 80.9514 17.429 79.7875 17.429L68.8012 17.4643C68.766 17.8522 68.7307 18.2578 68.7307 18.6811C68.7307 23.4247 71.5346 26.1757 75.3789 26.1757C78.3239 26.1757 80.105 25.1529 81.9919 22.4196C82.08 22.2961 82.2387 22.2609 82.3622 22.3314L82.5385 22.4372C82.6267 22.5077 82.6796 22.6488 82.6443 22.7546ZM68.9952 16.5649C72.5398 16.5296 74.797 16.4944 76.7015 16.318C77.3187 16.2475 77.8654 16.1064 78.1299 15.8595C78.3768 15.6126 78.5355 15.2952 78.5355 14.7486C78.5355 13.2144 77.4774 11.8918 74.8146 11.8918C71.9049 11.8918 69.7182 13.7081 68.9952 16.5649ZM55.2227 27.2514C53.6179 27.2514 53.5298 27.0574 53.5298 24.1654V10.9571C53.5298 10.8337 53.4592 10.675 53.2123 10.5339C53.0889 10.4634 52.648 10.3047 52.4188 10.4634C51.1844 11.3098 50.0205 11.9623 48.3099 12.3326C48.1865 12.3679 48.0807 12.4208 48.0102 12.509C47.922 12.6148 47.8867 12.7559 47.922 12.8793C47.9573 12.9851 48.0278 13.0909 48.1336 13.1438C48.2218 13.1967 48.3628 13.2496 48.5392 13.1967C49.2622 13.038 49.6854 12.9851 49.9147 13.1614C50.1616 13.3554 50.2321 13.9903 50.2321 15.1894V24.1654C50.2321 27.0574 50.1616 27.2514 48.5392 27.2514C48.2041 27.2514 48.0454 27.4807 48.0454 27.7099C48.0454 27.9392 48.2394 28.1684 48.5745 28.1684C49.1388 28.1684 50.0029 28.1508 50.7435 28.1331H50.7788C51.2902 28.1155 51.7663 28.1155 51.9779 28.1155C52.1895 28.1155 52.6304 28.1331 53.1065 28.1331H53.1418C53.8472 28.1508 54.6407 28.1684 55.205 28.1684C55.5401 28.1684 55.7164 27.9392 55.7164 27.7099C55.7164 27.4807 55.5401 27.2514 55.2227 27.2514Z" fill="#134A45"/>
</svg>
