<svg width="132" height="45" viewBox="0 0 132 45" fill="none" xmlns="http://www.w3.org/2000/svg">
<path fill-rule="evenodd" clip-rule="evenodd" d="M0.479004 13.824H0.499064C0.901463 6.13833 7.09553 0.0297241 14.6773 0.0297241C22.2591 0.0297241 28.4632 6.13833 28.8556 13.824H28.8756V15.0096C36.7186 15.0096 43.0736 21.5398 43.0736 29.5975C43.0736 37.6551 36.7186 44.1853 28.8752 44.1853H19.8054V34.7211H29.0766C31.9725 34.7211 34.3355 32.4006 34.4057 29.5273V29.4069C34.4057 26.4629 32.0226 24.0818 29.0766 24.0818H19.8054V14.8186C19.8054 11.9252 17.4825 9.56414 14.6067 9.49394H14.4864C11.54 9.49394 9.15687 11.875 9.15687 14.8186V24.0818H0.479004V13.824ZM9.15687 34.7111V44.1753H0.479004V34.7111H9.15687Z" fill="#134A45"/>
<path fill-rule="evenodd" clip-rule="evenodd" d="M129.24 11.8413C129.24 11.5569 129.29 11.3238 129.382 11.1408C129.473 10.9579 129.584 10.8259 129.706 10.7445C129.827 10.6634 129.959 10.6024 130.1 10.5619C130.242 10.5214 130.364 10.511 130.455 10.511C130.546 10.511 130.668 10.531 130.809 10.5619C130.951 10.6024 131.083 10.6534 131.204 10.7445C131.326 10.8259 131.427 10.9579 131.528 11.1408C131.619 11.3234 131.67 11.5569 131.67 11.8413V36.8739C131.67 37.1584 131.619 37.3919 131.528 37.5748C131.437 37.7574 131.326 37.8894 131.204 37.9708C131.083 38.052 130.95 38.1137 130.809 38.1538C130.694 38.1871 130.575 38.2041 130.455 38.2043C130.364 38.2043 130.242 38.1842 130.1 38.1534C129.959 38.1132 129.827 38.0623 129.706 37.9708C129.584 37.8894 129.483 37.7574 129.382 37.5748C129.29 37.3919 129.24 37.1584 129.24 36.8739V11.8413ZM121.514 28.2422C121.443 26.6575 120.938 25.348 119.996 24.3017C119.054 23.2557 117.718 22.7378 115.986 22.7378C115.176 22.7378 114.427 22.8903 113.738 23.1847C113.05 23.4896 112.443 23.8957 111.926 24.4036C111.406 24.9116 110.984 25.5104 110.681 26.1704C110.377 26.8226 110.195 27.5247 110.144 28.2422H121.514V28.2422ZM110.114 30.192C110.134 31.0345 110.306 31.8269 110.61 32.5683C110.905 33.2938 111.343 33.9531 111.896 34.5077C112.449 35.0617 113.102 35.5062 113.82 35.818C114.559 36.143 115.349 36.3054 116.209 36.3054C117.373 36.3054 118.345 36.082 119.125 35.625C119.904 35.1677 120.542 34.6702 121.008 34.1117C121.292 33.7972 121.606 33.6447 121.93 33.6447C122.213 33.6447 122.466 33.7362 122.699 33.9292C122.922 34.1217 123.033 34.3861 123.033 34.7211C123.033 34.8431 123.013 34.9751 122.962 35.1171C122.912 35.2595 122.821 35.422 122.679 35.5845C121.849 36.5185 120.877 37.2194 119.773 37.6868C118.669 38.1534 117.474 38.3873 116.189 38.3873C114.953 38.3873 113.81 38.1638 112.746 37.7173C111.693 37.2699 110.782 36.6609 110.023 35.8685C109.263 35.0766 108.666 34.1422 108.22 33.0658C107.785 31.9894 107.562 30.8111 107.562 29.5421C107.562 28.2727 107.775 27.0948 108.2 26.018C108.625 24.9416 109.223 24.0072 109.982 23.2152C110.738 22.4237 111.648 21.7948 112.655 21.3669C113.678 20.92 114.781 20.6969 115.966 20.6969C117.181 20.6969 118.274 20.8895 119.247 21.2859C120.219 21.6819 121.059 22.2403 121.758 22.9613C122.456 23.6822 123.003 24.5456 123.378 25.551C123.762 26.5564 123.945 27.6837 123.945 28.9327C123.945 29.7752 123.509 30.192 122.628 30.192H110.114V30.192ZM91.838 37.9608C91.3417 37.9608 91.028 37.8184 90.8964 37.5443C90.7648 37.2699 90.7038 37.0469 90.7038 36.8743C90.7038 36.7319 90.7343 36.5694 90.7949 36.3865C90.8559 36.2035 90.9875 35.9805 91.2001 35.7165L101.072 23.1647H92.3443C91.8681 23.1647 91.5644 23.0427 91.4228 22.7888C91.2812 22.5348 91.2101 22.3113 91.2101 22.1188C91.2101 21.9458 91.2812 21.7428 91.4228 21.4889C91.5644 21.2349 91.8785 21.113 92.3443 21.113H103.249C103.745 21.113 104.059 21.2554 104.19 21.5294C104.322 21.8038 104.383 22.0269 104.383 22.1994C104.383 22.3418 104.353 22.5043 104.292 22.6873C104.231 22.8698 104.099 23.0933 103.887 23.3572L94.0149 35.8385H103.563C104.089 35.8385 104.413 35.9805 104.545 36.2545C104.677 36.5285 104.737 36.7419 104.737 36.8844C104.737 37.0569 104.677 37.2699 104.545 37.5544C104.413 37.8288 104.089 37.9708 103.563 37.9708H91.838V37.9608V37.9608ZM86.8158 34.1827C86.8158 34.6601 86.8259 35.0666 86.8359 35.3915C86.8463 35.7165 86.8764 36.0415 86.9274 36.3765C86.9474 36.5185 86.9679 36.6505 86.9779 36.7724C86.988 36.8944 86.998 36.9859 86.998 37.0569C86.998 37.4428 86.8869 37.7269 86.6742 37.9199C86.4702 38.1074 86.2019 38.2094 85.9248 38.2047C85.7326 38.2047 85.52 38.1333 85.2668 37.9913C85.0137 37.8488 84.8616 37.5138 84.791 36.9859C84.7178 36.3996 84.6806 35.8094 84.6795 35.2186H84.6085C83.849 36.346 82.9884 37.1584 82.0268 37.6458C81.0647 38.1333 79.9105 38.3873 78.5536 38.3873C77.9157 38.3873 77.2578 38.2958 76.5793 38.1128C75.9124 37.9355 75.2842 37.636 74.7266 37.2294C74.1697 36.8234 73.704 36.295 73.3393 35.6451C72.975 34.9951 72.7824 34.2032 72.7824 33.2688C72.7824 31.9689 73.1066 30.9535 73.7645 30.1916C74.4125 29.4402 75.2935 28.8717 76.3872 28.5062C77.4804 28.1303 78.7362 27.8968 80.1436 27.7852C81.561 27.6733 83.0189 27.6228 84.5479 27.6228V27.0844C84.5479 25.622 84.1631 24.5251 83.4037 23.8146C82.6442 23.0933 81.5405 22.7378 80.0926 22.7378C78.5536 22.7378 77.1262 23.2052 75.8199 24.1392C75.4857 24.3526 75.2024 24.4641 74.9693 24.4641C74.8437 24.4657 74.7191 24.4423 74.6026 24.3953C74.4861 24.3482 74.3802 24.2785 74.2909 24.1901C74.0987 24.0072 74.0077 23.7637 74.0077 23.4487C74.0077 23.1342 74.1593 22.8397 74.4735 22.5448C75.0909 21.9968 75.9109 21.5398 76.9336 21.1944C77.9562 20.8494 79.0904 20.6765 80.3562 20.6765C81.2573 20.6765 82.0974 20.7984 82.8873 21.0524C83.6669 21.3059 84.3553 21.6819 84.9527 22.1894C85.5501 22.6973 86.0058 23.3268 86.34 24.0991C86.6742 24.8706 86.8359 25.764 86.8359 26.7999V34.1827H86.8158V34.1827ZM83.8289 29.5421C82.8253 29.542 81.822 29.5826 80.8216 29.6636C79.8094 29.7451 78.8978 29.9176 78.0778 30.1716C77.2578 30.4255 76.5894 30.791 76.063 31.2684C75.5366 31.7459 75.2835 32.3854 75.2835 33.1773C75.2835 33.7767 75.3946 34.2846 75.6177 34.6906C75.8403 35.0966 76.144 35.432 76.5288 35.6756C76.9133 35.9326 77.3427 36.1152 77.7946 36.214C78.2556 36.3237 78.728 36.3782 79.2019 36.3765C80.0521 36.3765 80.8115 36.224 81.4799 35.9295C82.1483 35.6246 82.7052 35.2186 83.1505 34.7111C83.6079 34.1921 83.9588 33.5882 84.1832 32.9338C84.4163 32.2638 84.5379 31.5529 84.5379 30.8115V29.5517H83.8289V29.5421V29.5421ZM65.3406 28.6382C65.3406 27.7548 65.2696 26.9524 65.128 26.231C64.986 25.5105 64.7432 24.891 64.399 24.3831C64.0548 23.8652 63.589 23.4692 63.0117 23.1747C62.4348 22.8903 61.6954 22.7378 60.8248 22.7378C60.1869 22.7378 59.559 22.8702 58.9516 23.1342C58.3442 23.3982 57.8074 23.8042 57.3316 24.3426C56.8557 24.8806 56.481 25.561 56.1873 26.3939C55.9041 27.2163 55.7621 28.2013 55.7621 29.3286V36.8844C55.7621 37.1684 55.7115 37.4019 55.6205 37.5849C55.5294 37.7678 55.4178 37.8998 55.2963 37.9808C55.175 38.062 55.0418 38.1237 54.9015 38.1638C54.7864 38.1971 54.6671 38.2142 54.5473 38.2143C54.4562 38.2143 54.3346 38.1943 54.1926 38.1638C54.051 38.1233 53.9194 38.0723 53.7978 37.9808C53.6763 37.8998 53.5752 37.7678 53.4741 37.5849C53.3826 37.4019 53.332 37.1684 53.332 36.8844V11.8417C53.332 11.5569 53.3826 11.3234 53.4741 11.1408C53.5651 10.9579 53.6763 10.8259 53.7978 10.7445C53.9094 10.6634 54.0409 10.6024 54.1826 10.5619C54.3346 10.5314 54.4458 10.511 54.5473 10.511C54.6383 10.511 54.7599 10.531 54.9015 10.5619C55.0431 10.6024 55.1747 10.6534 55.2963 10.7445C55.4178 10.8259 55.5193 10.9579 55.6205 11.1408C55.7115 11.3234 55.7621 11.5569 55.7621 11.8413V23.8957H55.8331C56.2888 22.9107 57.0279 22.1288 58.081 21.5599C59.1237 20.981 60.2374 20.6969 61.4322 20.6969C63.5485 20.6969 65.128 21.3364 66.1912 22.6058C67.2439 23.8752 67.7807 25.5506 67.7807 27.6428V36.8844C67.7807 37.1684 67.7301 37.4019 67.6391 37.5849C67.5476 37.7678 67.4365 37.8998 67.3149 37.9808C67.1936 38.062 67.0605 38.1237 66.9201 38.1638C66.8049 38.1971 66.6855 38.2142 66.5655 38.2143C66.4744 38.2143 66.3528 38.1943 66.2112 38.1638C66.0696 38.1233 65.938 38.0723 65.8164 37.9808C65.6949 37.8998 65.5938 37.7678 65.4923 37.5849C65.4012 37.4019 65.3507 37.1684 65.3507 36.8844V28.6382H65.3406V28.6382Z" fill="#134A45"/>
</svg>
