<svg width="150" height="29" viewBox="0 0 150 29" fill="none" xmlns="http://www.w3.org/2000/svg">
<path d="M30.9929 15.1657C30.9934 12.8543 30.462 10.5738 29.4398 8.50064C28.4176 6.42751 26.9321 4.61738 25.0983 3.21036C23.2645 1.80334 21.1314 0.837167 18.8643 0.386621C16.5973 -0.063925 14.2569 0.0132399 12.0244 0.612143C9.79192 1.21105 7.72718 2.31563 5.99 3.84039C4.25282 5.36515 2.88979 7.26919 2.00641 9.40515C1.12303 11.5411 0.742995 13.8517 0.895714 16.1581C1.04843 18.4645 1.72981 20.7048 2.88712 22.7056H28.9598C30.293 20.4166 30.9946 17.8147 30.9929 15.1657Z" fill="#134A45"/>
<path d="M44.6055 5.96262H47.9295V12.7309H55.2464V5.96262H58.5674V22.6853H55.2464V15.8847H47.9295V22.7058H44.6055V5.96262ZM71.9661 17.9178H63.6224C63.8835 19.5666 65.3826 20.0918 66.6823 20.0918C67.3207 20.1128 67.9547 19.9779 68.5292 19.6988C69.1038 19.4197 69.6017 19.0048 69.9799 18.4899L71.9661 20.4497C71.3323 21.2462 70.5243 21.8868 69.6043 22.3221C68.6842 22.7575 67.6766 22.9761 66.6588 22.961C63.4551 22.961 60.2984 20.9279 60.2984 16.6974C60.2984 12.5138 63.3818 10.3369 66.4593 10.3369C69.3931 10.3369 72.057 12.3466 72.057 16.3864C72.0561 16.8982 72.0257 17.4095 71.9661 17.9178ZM66.3478 13.0859C65.6763 13.0543 65.0183 13.2827 64.5107 13.7236C64.0032 14.1645 63.685 14.784 63.6224 15.4535H68.9765C68.8328 13.922 67.7825 13.0859 66.3478 13.0859ZM97.6104 12.2732V5.96262H100.838V22.6853H97.6104V21.2037C97.1566 21.7749 96.5751 22.2317 95.9128 22.5374C95.2504 22.8431 94.5255 22.9892 93.7965 22.964C90.7365 22.964 87.7 20.837 87.7 16.627C87.7 12.417 90.6632 10.3398 93.6527 10.3398C95.4218 10.3369 96.8329 11.0293 97.6104 12.2732ZM97.584 16.6504C97.584 14.01 95.8413 13.0624 94.2395 13.0624C92.3736 13.0624 90.9624 14.3298 90.9624 16.624C90.9624 18.8479 92.3266 20.2355 94.2864 20.2355C96.0672 20.2355 97.5723 19.065 97.5723 16.6504H97.584ZM116.269 18.0117L118.634 10.6479H122.254L117.774 22.7058H114.691L112.051 15.6647L109.445 22.7058H106.371L101.947 10.6479H105.532L107.896 17.9824L110.481 10.6479H113.635L116.269 18.0117ZM149.175 22.2452C149.175 26.1882 146.065 28.2918 142.861 28.2918C140.136 28.2918 137.624 26.7867 136.835 23.9175L139.754 22.8642C140.159 24.7067 141.515 25.5193 142.982 25.5193C144.677 25.5193 145.968 24.516 145.968 22.4828V20.7226C145.601 21.2871 145.098 21.7511 144.506 22.0723C143.913 22.3935 143.25 22.5618 142.577 22.562C140.065 22.562 137.674 20.9397 137.674 17.6626V10.6215H140.925V17.2196C140.925 18.751 141.714 19.8043 143.272 19.8043C144.921 19.8043 145.912 18.5369 145.912 16.5272V10.6479H149.166L149.175 22.2452ZM82.9238 10.6479V12.1148C82.1816 10.8973 80.8907 10.3545 79.3358 10.3545C76.2523 10.3545 73.0956 12.5314 73.0956 16.7385C73.0956 20.7548 76.0118 22.9786 79.0248 22.9786C79.7628 22.9943 80.4951 22.8465 81.1692 22.5457C81.8433 22.2449 82.4425 21.7986 82.9238 21.2389V22.7058H86.151V10.6479H82.9238ZM79.4795 20.1622C77.7809 20.1622 76.3228 18.8244 76.3228 16.6416C76.3228 14.4178 77.8278 13.0771 79.5499 13.0771C81.2721 13.0771 82.827 14.4413 82.827 16.5976C82.827 18.8009 81.2251 20.1622 79.4795 20.1622ZM131.898 10.6479V12.1148C131.155 10.8973 129.862 10.3545 128.31 10.3545C125.226 10.3545 122.069 12.5314 122.069 16.7385C122.069 20.7548 124.986 22.9786 127.999 22.9786C128.737 22.9943 129.469 22.8465 130.143 22.5457C130.817 22.2449 131.416 21.7986 131.898 21.2389V22.7058H135.125V10.6479H131.898ZM128.453 20.1622C126.755 20.1622 125.297 18.8244 125.297 16.6416C125.297 14.4178 126.802 13.0771 128.524 13.0771C130.246 13.0771 131.801 14.4413 131.801 16.5976C131.801 18.8009 130.199 20.1622 128.453 20.1622Z" fill="#134A45"/>
</svg>
