<svg width="125" height="68" viewBox="0 0 125 68" fill="none" xmlns="http://www.w3.org/2000/svg">
<path d="M9.21291 34.5656H0.401166C0.371286 34.5648 0.341549 34.5701 0.313775 34.5811C0.286 34.5922 0.260773 34.6087 0.239637 34.6299C0.2185 34.651 0.2019 34.6763 0.190851 34.704C0.179802 34.7318 0.174538 34.7615 0.17538 34.7914C0.175031 34.8202 0.180841 34.8487 0.192419 34.875C0.203997 34.9013 0.221076 34.9248 0.242506 34.944L9.4631 44.1646C9.48226 44.186 9.50579 44.2031 9.53211 44.2147C9.55842 44.2262 9.58691 44.232 9.61566 44.2317C9.64502 44.2325 9.67424 44.2274 9.7016 44.2168C9.72896 44.2061 9.75391 44.19 9.77496 44.1696C9.79601 44.1491 9.81274 44.1246 9.82416 44.0975C9.83558 44.0705 9.84146 44.0414 9.84144 44.012V35.1942C9.84398 35.1109 9.82946 35.0281 9.79877 34.9507C9.76808 34.8733 9.72187 34.803 9.66299 34.7441C9.60412 34.6852 9.53381 34.639 9.4564 34.6083C9.379 34.5776 9.29613 34.5631 9.21291 34.5656Z" fill="#134A45"/>
<path d="M20.6548 34.5655H12.1116C12.0676 34.5635 12.024 34.5751 11.9869 34.5988C11.9497 34.6225 11.9208 34.6571 11.9041 34.6979C11.8874 34.7386 11.8837 34.7836 11.8935 34.8265C11.9034 34.8694 11.9262 34.9083 11.959 34.9377L20.9233 43.902C20.9439 43.9233 20.9685 43.9403 20.9958 43.9518C21.023 43.9633 21.0524 43.9692 21.082 43.9692C21.1392 43.9676 21.1935 43.9437 21.2334 43.9027C21.2733 43.8617 21.2956 43.8067 21.2955 43.7495V35.2062C21.2999 35.1209 21.2864 35.0357 21.2557 34.9559C21.2251 34.8762 21.178 34.8038 21.1176 34.7434C21.0572 34.683 20.9848 34.636 20.9051 34.6053C20.8254 34.5747 20.7401 34.5611 20.6548 34.5655Z" fill="#134A45"/>
<path d="M32.0783 34.5656H23.5046C23.4605 34.5635 23.417 34.5752 23.3798 34.5989C23.3427 34.6226 23.3138 34.6572 23.2971 34.6979C23.2804 34.7387 23.2767 34.7836 23.2865 34.8266C23.2964 34.8695 23.3192 34.9084 23.352 34.9378L32.3163 43.9021C32.3369 43.9234 32.3615 43.9403 32.3888 43.9519C32.416 43.9634 32.4454 43.9693 32.475 43.9692C32.5322 43.9677 32.5865 43.9438 32.6264 43.9028C32.6663 43.8618 32.6886 43.8068 32.6885 43.7496V35.2063C32.6927 35.1236 32.68 35.041 32.6511 34.9634C32.6223 34.8858 32.578 34.8149 32.521 34.755C32.4639 34.695 32.3952 34.6473 32.3191 34.6148C32.243 34.5822 32.1611 34.5655 32.0783 34.5656Z" fill="#134A45"/>
<path d="M9.23128 23.1419H0.688045C0.630823 23.1419 0.575851 23.1642 0.534823 23.2041C0.493796 23.244 0.469951 23.2983 0.468361 23.3555C0.468282 23.3851 0.474188 23.4144 0.485723 23.4417C0.497258 23.469 0.514185 23.4936 0.535487 23.5142L9.46927 32.4785C9.48983 32.4998 9.51449 32.5167 9.54175 32.5282C9.56901 32.5398 9.59833 32.5457 9.62793 32.5456C9.68513 32.544 9.73946 32.5202 9.77934 32.4791C9.81923 32.4381 9.84154 32.3831 9.84151 32.3259V23.7522C9.84151 23.672 9.82573 23.5927 9.79506 23.5187C9.7644 23.4446 9.71945 23.3773 9.66278 23.3207C9.60612 23.264 9.53885 23.2191 9.46481 23.1884C9.39077 23.1577 9.31142 23.1419 9.23128 23.1419Z" fill="#134A45"/>
<path d="M20.6546 23.1423H12.1113C12.0541 23.1422 11.9991 23.1646 11.9581 23.2044C11.9171 23.2443 11.8932 23.2987 11.8917 23.3559C11.8916 23.3855 11.8975 23.4148 11.909 23.442C11.9206 23.4693 11.9375 23.494 11.9588 23.5145L20.9231 32.4788C20.9436 32.5001 20.9683 32.517 20.9956 32.5286C21.0228 32.5401 21.0521 32.546 21.0817 32.5459C21.1389 32.5443 21.1933 32.5205 21.2331 32.4795C21.273 32.4384 21.2953 32.3835 21.2953 32.3263V23.7525C21.2954 23.6697 21.2787 23.5878 21.2461 23.5117C21.2136 23.4356 21.1659 23.3669 21.1059 23.3098C21.046 23.2528 20.9751 23.2085 20.8975 23.1797C20.8199 23.1509 20.7372 23.1381 20.6546 23.1423Z" fill="#134A45"/>
<path d="M32.2011 23.1419H25.3903C25.3455 23.1435 25.3029 23.162 25.2711 23.1937C25.2394 23.2254 25.2209 23.268 25.2194 23.3128C25.2191 23.3354 25.2232 23.3578 25.2316 23.3787C25.24 23.3997 25.2524 23.4188 25.2682 23.4349L32.3964 30.5631C32.4126 30.5789 32.4316 30.5913 32.4526 30.5997C32.4735 30.6081 32.4959 30.6122 32.5185 30.6119C32.5633 30.6104 32.6059 30.5919 32.6376 30.5602C32.6694 30.5285 32.6879 30.4859 32.6894 30.441V23.6302C32.6894 23.5661 32.6768 23.5026 32.6522 23.4433C32.6277 23.3841 32.5917 23.3303 32.5464 23.2849C32.501 23.2396 32.4472 23.2036 32.388 23.1791C32.3288 23.1546 32.2653 23.1419 32.2011 23.1419Z" fill="#134A45"/>
<path d="M43.8441 29.8613C43.8581 29.8764 43.8751 29.8886 43.894 29.8969C43.9129 29.9053 43.9333 29.9098 43.9539 29.9101C43.996 29.9101 44.0364 29.8934 44.0661 29.8636C44.0959 29.8339 44.1126 29.7935 44.1126 29.7514V23.5814C44.1126 23.4648 44.0663 23.3531 43.9839 23.2706C43.9015 23.1882 43.7897 23.1419 43.6732 23.1419H37.5031C37.461 23.1419 37.4207 23.1587 37.3909 23.1884C37.3612 23.2182 37.3445 23.2585 37.3445 23.3006C37.3447 23.3213 37.3492 23.3417 37.3576 23.3606C37.366 23.3794 37.3781 23.3964 37.3933 23.4105L43.8441 29.8613Z" fill="#134A45"/>
<path d="M9.2314 11.719H0.688159C0.644151 11.717 0.600593 11.7286 0.563453 11.7523C0.526314 11.776 0.497411 11.8106 0.480704 11.8513C0.463998 11.8921 0.460305 11.937 0.470133 11.98C0.479961 12.0229 0.502828 12.0618 0.535601 12.0912L9.46939 21.0433C9.48995 21.0646 9.5146 21.0816 9.54187 21.0931C9.56913 21.1046 9.59844 21.1105 9.62805 21.1105C9.68525 21.1089 9.73957 21.085 9.77946 21.044C9.81935 21.003 9.84165 20.948 9.84163 20.8908V12.3292C9.84163 12.2491 9.82585 12.1697 9.79518 12.0957C9.76451 12.0217 9.71956 11.9544 9.6629 11.8977C9.60623 11.8411 9.53896 11.7961 9.46492 11.7654C9.39089 11.7348 9.31153 11.719 9.2314 11.719Z" fill="#134A45"/>
<path d="M20.7774 11.7188H13.9666C13.9217 11.7203 13.8791 11.7388 13.8474 11.7705C13.8157 11.8022 13.7972 11.8448 13.7957 11.8896C13.7954 11.9122 13.7995 11.9346 13.8079 11.9556C13.8163 11.9765 13.8287 11.9956 13.8445 12.0117L20.9727 19.1399C20.9888 19.1557 21.0079 19.1682 21.0289 19.1765C21.0498 19.1849 21.0722 19.1891 21.0948 19.1887C21.1396 19.1872 21.1822 19.1687 21.2139 19.137C21.2456 19.1053 21.2641 19.0627 21.2657 19.0179V12.207C21.2657 12.1429 21.253 12.0794 21.2285 12.0202C21.204 11.9609 21.168 11.9071 21.1227 11.8618C21.0773 11.8164 21.0235 11.7805 20.9643 11.7559C20.905 11.7314 20.8415 11.7188 20.7774 11.7188Z" fill="#134A45"/>
<path d="M32.2499 11.7188H26.0798C26.0378 11.7188 25.9974 11.7355 25.9676 11.7652C25.9379 11.795 25.9212 11.8354 25.9212 11.8774C25.9214 11.8981 25.9259 11.9185 25.9343 11.9374C25.9427 11.9563 25.9548 11.9732 25.97 11.9873L32.4208 18.4381C32.4348 18.4532 32.4518 18.4654 32.4707 18.4738C32.4896 18.4822 32.51 18.4866 32.5306 18.4869C32.5727 18.4869 32.6131 18.4702 32.6428 18.4404C32.6726 18.4107 32.6893 18.3703 32.6893 18.3282V12.1582C32.6893 12.1005 32.6779 12.0433 32.6558 11.99C32.6338 11.9367 32.6014 11.8883 32.5606 11.8475C32.5198 11.8067 32.4714 11.7743 32.418 11.7522C32.3647 11.7301 32.3076 11.7188 32.2499 11.7188Z" fill="#134A45"/>
<path d="M43.8991 17.1748C43.9098 17.1868 43.923 17.1963 43.9378 17.2026C43.9525 17.2089 43.9685 17.212 43.9845 17.2114C44.0185 17.2114 44.0511 17.1979 44.0752 17.1739C44.0992 17.1499 44.1127 17.1173 44.1127 17.0833V12.0789C44.1135 12.0314 44.1048 11.9842 44.087 11.9401C44.0692 11.8961 44.0427 11.856 44.0091 11.8224C43.9755 11.7888 43.9354 11.7623 43.8914 11.7445C43.8473 11.7267 43.8001 11.718 43.7526 11.7188H38.7482C38.7142 11.7188 38.6816 11.7323 38.6576 11.7564C38.6336 11.7804 38.6201 11.813 38.6201 11.847C38.6191 11.8631 38.6219 11.8792 38.6283 11.894C38.6346 11.9089 38.6444 11.922 38.6567 11.9324L43.8991 17.1748Z" fill="#134A45"/>
<path d="M9.32961 0.295533H2.54316C2.49832 0.297054 2.45574 0.315546 2.42401 0.347268C2.39229 0.378991 2.3738 0.421577 2.37228 0.466414C2.37196 0.488975 2.3761 0.511377 2.38448 0.532326C2.39286 0.553276 2.40531 0.572358 2.4211 0.588473L9.54931 7.71668C9.56543 7.73247 9.58451 7.74492 9.60546 7.7533C9.62641 7.76168 9.64881 7.76583 9.67137 7.7655C9.71621 7.76398 9.75879 7.74549 9.79051 7.71377C9.82224 7.68204 9.84073 7.63946 9.84225 7.59462V0.783766C9.84233 0.717543 9.82894 0.651996 9.80289 0.591111C9.77685 0.530227 9.73868 0.475278 9.69073 0.429607C9.64278 0.383936 9.58603 0.348498 9.52395 0.325449C9.46187 0.3024 9.39575 0.292221 9.32961 0.295533Z" fill="#134A45"/>
<path d="M20.8263 0.295141H14.6562C14.6141 0.295141 14.5738 0.311858 14.544 0.341616C14.5143 0.371373 14.4975 0.411733 14.4975 0.453817C14.4978 0.474479 14.5023 0.494871 14.5107 0.513754C14.5191 0.532637 14.5312 0.549619 14.5464 0.563669L20.9971 7.00835C21.0112 7.0235 21.0282 7.03564 21.0471 7.04404C21.0659 7.05243 21.0863 7.0569 21.107 7.05717C21.1491 7.05717 21.1894 7.04046 21.2192 7.0107C21.249 6.98094 21.2657 6.94058 21.2657 6.8985V0.734551C21.2657 0.618012 21.2194 0.506246 21.137 0.423841C21.0546 0.341436 20.9428 0.295141 20.8263 0.295141Z" fill="#134A45"/>
<path d="M32.329 0.294975H27.3246C27.2906 0.294975 27.258 0.308478 27.234 0.332513C27.2099 0.356548 27.1964 0.389146 27.1964 0.423137C27.1955 0.439245 27.1983 0.455355 27.2047 0.470188C27.211 0.48502 27.2207 0.498165 27.2331 0.508578L32.4755 5.75098C32.4862 5.76296 32.4994 5.77245 32.5141 5.77878C32.5289 5.7851 32.5449 5.78811 32.5609 5.7876C32.5777 5.7876 32.5944 5.78429 32.61 5.77784C32.6255 5.7714 32.6396 5.76196 32.6515 5.75006C32.6634 5.73816 32.6729 5.72403 32.6793 5.70848C32.6858 5.69294 32.6891 5.67627 32.6891 5.65944V0.655048C32.6899 0.607535 32.6812 0.560342 32.6633 0.516282C32.6455 0.472223 32.6191 0.432199 32.5855 0.398597C32.5518 0.364995 32.5118 0.338503 32.4678 0.320701C32.4237 0.302898 32.3765 0.294149 32.329 0.294975Z" fill="#134A45"/>
<path d="M43.8991 5.75098C43.9098 5.76296 43.923 5.77245 43.9378 5.77878C43.9525 5.7851 43.9685 5.78811 43.9845 5.7876C44.0185 5.7876 44.0511 5.7741 44.0752 5.75006C44.0992 5.72603 44.1127 5.69343 44.1127 5.65944V0.655048C44.1135 0.607535 44.1048 0.560342 44.087 0.516282C44.0692 0.472223 44.0427 0.432199 44.0091 0.398597C43.9755 0.364995 43.9354 0.338503 43.8914 0.320701C43.8473 0.302898 43.8001 0.294149 43.7526 0.294975H38.7482C38.7142 0.294975 38.6816 0.308478 38.6576 0.332513C38.6336 0.356548 38.6201 0.389146 38.6201 0.423137C38.6191 0.439245 38.6219 0.455355 38.6283 0.470188C38.6346 0.48502 38.6444 0.498165 38.6567 0.508578L43.8991 5.75098Z" fill="#134A45"/>
<path d="M124.406 33.998H121.544V47.7465H124.406V33.998Z" fill="#134A45"/>
<path d="M56.1824 47.9727C56.8906 47.9988 57.5969 47.8826 58.2595 47.6308C58.922 47.379 59.5272 46.9968 60.0394 46.5069C60.5515 46.0169 60.9601 45.4292 61.2409 44.7785C61.5218 44.1278 61.6692 43.4273 61.6745 42.7186V42.682C61.5208 41.3391 60.8773 40.1 59.8672 39.2018C58.8571 38.3037 57.5512 37.8096 56.1995 37.8142C54.8479 37.8187 53.5454 38.3215 52.5413 39.2264C51.5372 40.1313 50.902 41.3747 50.7574 42.7186V42.7552C50.7603 43.4572 50.9041 44.1515 51.1803 44.7968C51.4566 45.4422 51.8597 46.0255 52.3656 46.5121C52.8716 46.9987 53.4702 47.3787 54.1258 47.6296C54.7814 47.8805 55.4808 47.9972 56.1824 47.9727ZM53.5645 42.682C53.5461 42.3285 53.6004 41.975 53.7241 41.6433C53.8478 41.3117 54.0382 41.0089 54.2836 40.7538C54.529 40.4987 54.8241 40.2967 55.1507 40.1602C55.4773 40.0237 55.8284 39.9557 56.1824 39.9603C56.5413 39.9641 56.8958 40.0399 57.225 40.1831C57.5541 40.3263 57.8512 40.534 58.0987 40.794C58.3462 41.054 58.539 41.361 58.6658 41.6968C58.7926 42.0326 58.8508 42.3904 58.8369 42.7491V42.7857C58.8596 43.1417 58.8085 43.4985 58.6868 43.8338C58.5651 44.169 58.3753 44.4755 58.1295 44.734C57.8836 44.9924 57.587 45.1972 57.2582 45.3356C56.9295 45.4739 56.5756 45.5428 56.219 45.5378C55.8601 45.534 55.5055 45.4583 55.1764 45.3151C54.8472 45.1719 54.5501 44.9642 54.3027 44.7042C54.0552 44.4442 53.8623 44.1372 53.7356 43.8014C53.6088 43.4656 53.5506 43.1078 53.5645 42.7491V42.682Z" fill="#134A45"/>
<path d="M81.9038 47.7465V42.1141C81.9038 40.7594 82.6055 40.0637 83.6978 40.0637C84.7902 40.0637 85.4248 40.7594 85.4248 42.1141V47.7465H88.2868V41.211C88.2868 38.8982 87.0297 37.4641 84.8634 37.4641C84.2752 37.47 83.6975 37.6206 83.1813 37.9026C82.6652 38.1846 82.2264 38.5894 81.9038 39.0813V33.998H79.0418V47.7465H81.9038Z" fill="#134A45"/>
<path d="M99.9542 43.7921L98.038 37.6166H95.5666L93.6688 43.7738L92.0456 37.6532H89.147L92.2531 47.8196H94.816L96.7932 41.6258L98.7337 47.8196H101.309L104.458 37.6532H101.614L99.9542 43.7921Z" fill="#134A45"/>
<path d="M109.81 37.4643C106.874 37.4643 104.824 39.8381 104.824 42.7184V42.755C104.851 43.8344 105.206 44.8801 105.841 45.7534C106.476 46.6266 107.361 47.2863 108.38 47.645C109.398 48.0037 110.502 48.0444 111.544 47.7618C112.586 47.4792 113.518 46.8866 114.215 46.0625L112.58 44.6162C112.266 44.9468 111.887 45.209 111.467 45.3865C111.047 45.5639 110.595 45.6528 110.139 45.6475C109.559 45.6801 108.988 45.4956 108.537 45.1301C108.086 44.7646 107.787 44.2443 107.698 43.6704H114.716C114.716 43.408 114.759 43.1456 114.759 42.9198C114.728 40.0822 113.184 37.4643 109.81 37.4643ZM107.625 41.9068C107.851 40.607 108.626 39.7649 109.81 39.7649C110.993 39.7649 111.768 40.6314 111.939 41.9068H107.625Z" fill="#134A45"/>
<path d="M119.207 33.998H116.345V47.7465H119.207V33.998Z" fill="#134A45"/>
<path d="M54.2297 57.138C51.5325 57.138 49.5553 59.3959 49.5553 62.2212C49.5229 62.8804 49.6254 63.5392 49.8567 64.1572C50.0879 64.7753 50.443 65.3396 50.9001 65.8156C51.3572 66.2916 51.9067 66.6691 52.515 66.9252C53.1232 67.1812 53.7773 67.3102 54.4372 67.3045C55.2004 67.3224 55.9578 67.167 56.6522 66.8499C57.3467 66.5328 57.9601 66.0623 58.4464 65.4738L57.5372 64.6683C57.1567 65.1024 56.6873 65.4497 56.1609 65.6866C55.6345 65.9235 55.0633 66.0445 54.486 66.0413C53.6061 66.0501 52.7571 65.7174 52.1175 65.1131C51.4778 64.5088 51.0975 63.6799 51.0565 62.801H58.7576C58.7576 62.5752 58.7576 62.4287 58.7576 62.2945C58.7576 59.4325 57.11 57.138 54.2297 57.138ZM51.026 61.6354C51.2335 59.7559 52.515 58.3585 54.1931 58.3585C56.1092 58.3585 57.1283 59.8657 57.2992 61.6354H51.026Z" fill="#134A45"/>
<path d="M46.614 59.7562H39.0105V53.898H37.5216V67.079H39.0105V61.1475H46.614V67.079H48.103V53.898H46.614V59.7562Z" fill="#134A45"/>
<path d="M86.4804 57.1381C85.807 57.1189 85.1413 57.2859 84.5567 57.6208C83.972 57.9556 83.4911 58.4453 83.1669 59.0359V53.3302H81.7206V67.0787H83.1669V61.5073C83.1405 61.1107 83.197 60.7129 83.3329 60.3393C83.4687 59.9657 83.6809 59.6245 83.9559 59.3375C84.2309 59.0504 84.5627 58.8238 84.9301 58.6721C85.2975 58.5203 85.6925 58.4468 86.0899 58.4562C87.7985 58.4562 88.781 59.5851 88.781 61.3914V67.0787H90.2273V61.0313C90.2029 58.7186 88.8298 57.1381 86.4804 57.1381Z" fill="#134A45"/>
<path d="M46.3699 42.6816L40.1944 34.5656H37.5216V47.7466H40.3835V39.3681L46.7666 47.7466H49.2319V34.5656H46.3699V42.6816Z" fill="#134A45"/>
<path d="M66.0315 39.6858V37.6537H63.1695V47.7469H66.0315V44.0184C66.0315 41.5775 67.1971 40.4607 69.0827 40.4607H69.2352V37.4645C67.5571 37.3913 66.6173 38.2944 66.0315 39.6858Z" fill="#134A45"/>
<path d="M64.4144 57.1929C63.1861 57.1901 61.9741 57.4743 60.8751 58.0228L61.3022 59.2067C62.2199 58.7561 63.2274 58.5183 64.2496 58.511C66.0803 58.511 67.1299 59.4142 67.1299 61.1472V61.4462C66.1651 61.1625 65.1637 61.0226 64.1581 61.0313C61.6867 61.0313 59.9963 62.1236 59.9963 64.2167V64.2533C59.9963 66.2488 61.827 67.3045 63.6577 67.3045C64.3311 67.3236 64.9994 67.1832 65.6082 66.8947C66.2169 66.6062 66.7488 66.1779 67.1604 65.6446V67.097H68.5945V61.1472C68.6277 60.6217 68.5528 60.095 68.3743 59.5995C68.1959 59.1041 67.9178 58.6506 67.5571 58.2669C67.13 57.8895 66.6324 57.6002 66.0931 57.4159C65.5537 57.2316 64.9832 57.1558 64.4144 57.1929ZM67.1604 63.5027C67.1604 65.0405 65.7081 66.1206 63.9201 66.1206C62.602 66.1206 61.4792 65.4005 61.4792 64.1801V64.1435C61.4792 62.9718 62.5166 62.1846 64.3229 62.1846C65.2853 62.1863 66.2426 62.3239 67.1665 62.5935L67.1604 63.5027Z" fill="#134A45"/>
<path d="M76.9364 54.4042H75.484V57.3456H74.1293V58.6209H75.484V64.4975C75.484 66.4746 76.6679 67.2496 78.2301 67.2496C78.8413 67.2602 79.4455 67.1175 79.9875 66.8347V65.6142C79.5495 65.8391 79.0642 65.9563 78.5718 65.9559C78.3506 65.9884 78.1249 65.9689 77.9125 65.899C77.7001 65.8291 77.507 65.7107 77.3483 65.5532C77.1896 65.3957 77.0698 65.2034 76.9983 64.9916C76.9268 64.7797 76.9056 64.5542 76.9364 64.3327V58.6209H80.0241V57.3456H76.9364V54.4042Z" fill="#134A45"/>
<path d="M77.1743 47.3316V45.0372C76.742 45.2724 76.257 45.3942 75.7647 45.3911C75.124 45.3911 74.8372 45.0738 74.8372 44.4147V40.1004H77.211V37.6595H74.8372V35.0782H71.9752V37.6595H70.7547V40.1004H71.9752V44.8846C71.9752 47.2218 73.1956 47.9358 74.9165 47.9358C75.7111 47.9518 76.4939 47.7424 77.1743 47.3316Z" fill="#134A45"/>
<path d="M72.3413 53.3302H70.8889V67.0787H72.3413V53.3302Z" fill="#134A45"/>
<path d="M95.1462 58.6214C95.1462 58.188 94.8166 58.011 94.3649 58.011H93.4675V59.9339H93.9437V59.3234H94.2367L94.6518 59.9339H95.2073L94.725 59.238C94.8536 59.1963 94.9646 59.1132 95.0409 59.0016C95.1171 58.89 95.1542 58.7563 95.1462 58.6214ZM94.3343 58.9144H93.9437V58.4017H94.3343C94.5419 58.4017 94.6701 58.4871 94.6701 58.6519C94.6701 58.8168 94.5541 58.9144 94.3343 58.9144Z" fill="#134A45"/>
<path d="M94.2369 57.1321C93.7512 57.1321 93.2854 57.3251 92.942 57.6685C92.5986 58.0119 92.4056 58.4777 92.4056 58.9634C92.4056 59.4491 92.5986 59.9149 92.942 60.2584C93.2854 60.6018 93.7512 60.7947 94.2369 60.7947C94.7226 60.7947 95.1884 60.6018 95.5319 60.2584C95.8753 59.9149 96.0683 59.4491 96.0683 58.9634C96.0683 58.4777 95.8753 58.0119 95.5319 57.6685C95.1884 57.3251 94.7226 57.1321 94.2369 57.1321ZM95.8607 58.9634C95.8623 59.178 95.8215 59.3907 95.7407 59.5895C95.6599 59.7882 95.5407 59.9691 95.3898 60.1217C95.239 60.2742 95.0595 60.3955 94.8616 60.4785C94.6638 60.5616 94.4515 60.6047 94.2369 60.6055C94.0222 60.6072 93.8093 60.5659 93.6108 60.4841C93.4122 60.4023 93.232 60.2817 93.0807 60.1293C92.9295 59.9769 92.8102 59.7958 92.7299 59.5966C92.6496 59.3974 92.6099 59.1842 92.6132 58.9695C92.6108 58.7545 92.6509 58.541 92.7314 58.3416C92.8118 58.1421 92.9309 57.9606 93.0819 57.8073C93.2328 57.6541 93.4126 57.5323 93.6108 57.4489C93.8091 57.3655 94.0219 57.3221 94.2369 57.3213C94.4517 57.3197 94.6646 57.361 94.8631 57.4428C95.0617 57.5245 95.2419 57.6452 95.3931 57.7976C95.5444 57.95 95.6637 58.1311 95.744 58.3303C95.8243 58.5294 95.864 58.7426 95.8607 58.9573V58.9634Z" fill="#134A45"/>
</svg>
