<svg width="168" height="23" viewBox="0 0 168 23" fill="none" xmlns="http://www.w3.org/2000/svg">
<path d="M162.055 5.70489C160.783 5.70489 159.487 6.12088 158.631 7.05007V0.764833L158.614 0.780771L155.941 2.08771V18.1279H158.631V10.425C159.12 8.98259 160.172 8.27254 161.541 8.27254C163.35 8.27254 164.329 9.69104 164.329 11.0115V18.1279H167.019V10.9629C167.019 7.80794 165.088 5.70489 162.055 5.70489ZM144.51 5.90093H146.319V3.55323L149.009 2.23274V5.90093H152.141L152.139 8.29724H149.009V13.8485C149.009 15.0957 149.351 15.6575 150.745 15.6575H152.432V18.1279H150.061C147.713 18.1279 146.319 16.7333 146.319 14.4104V8.29724H144.51V5.90093ZM138.823 2.08771V18.1279H141.514V0.772802L138.823 2.08771ZM132.197 17.3286C131.341 18.0132 130.216 18.4045 128.92 18.4045C125.301 18.4045 122.636 15.6655 122.636 12.0953C122.636 8.52516 125.301 5.78617 128.92 5.78617C130.216 5.78617 131.341 6.20216 132.197 6.88591V5.78697H134.887V18.2092H132.197V17.3286ZM132.197 10.0162C131.536 9.01446 130.289 8.35382 128.945 8.35382C126.866 8.35382 125.399 9.96757 125.399 12.0953C125.399 14.2231 126.866 15.8368 128.945 15.8368C130.289 15.8368 131.536 15.1762 132.196 14.1737L132.197 10.0162ZM108.075 12.014C108.075 8.44387 110.764 5.70489 114.334 5.70489C117.734 5.70489 120.008 8.102 120.179 12.014V12.7472H110.862C111.131 14.4845 112.549 15.6575 114.383 15.6575C115.593 15.6693 116.751 15.1619 117.563 14.2637L119.372 16.1954C118.32 17.4187 116.535 18.3232 114.383 18.3232C110.764 18.3232 108.075 15.5842 108.075 12.014ZM110.935 10.6688H117.22C116.902 9.00649 115.753 8.17452 114.139 8.17452C112.697 8.17452 111.375 9.12922 110.935 10.6688ZM105.238 0.750488L102.401 2.13711V7.93863H93.7939V0.750488L90.9569 2.13711V18.3838H93.7939V10.6792H102.401V18.3838H105.238L105.238 0.750488Z" fill="#134A45"/>
<path d="M73.5723 17.4187L68.755 5.82764H71.6406L74.9661 14.2637L78.3171 5.82764H81.2019L74.2082 22.554H71.3712L73.5723 17.4187ZM55.3549 12.1121C55.3549 8.54192 58.0445 5.80294 61.6146 5.80294C65.0143 5.80294 67.2886 8.19925 67.4592 12.1121V12.8452H58.1425C58.411 14.5825 59.8296 15.7556 61.664 15.7556C63.1304 15.7556 64.207 15.0702 64.8429 14.3618L66.6519 16.2935C65.6008 17.5167 63.8157 18.4212 61.6632 18.4212C58.0453 18.4212 55.3549 15.6822 55.3549 12.1121ZM58.2158 10.7669H64.5002C64.1823 9.10374 63.0339 8.27256 61.4194 8.27256C59.977 8.27256 58.6557 9.22647 58.2158 10.7669ZM49.3637 2.17779V18.371H52.0533V0.862085L49.3637 2.17779ZM37.3327 15.9269L39.3872 14.4598C39.9737 15.4623 40.6583 16.0249 41.8815 16.0249C42.8107 16.0249 43.4466 15.5603 43.4466 14.8997C43.4466 14.1904 42.9326 13.7752 41.8082 13.3592L40.9523 13.0166C38.8732 12.2101 37.9687 10.9135 37.9687 9.25117C37.9687 7.27005 39.6318 5.80294 41.9054 5.80294C43.4706 5.80294 44.8157 6.41417 45.7202 7.93069L43.7399 9.29978C43.3239 8.54192 42.7374 8.20004 41.9548 8.20004C41.2456 8.20004 40.6096 8.56662 40.6096 9.17785C40.6096 9.81299 41.0256 10.2051 42.1748 10.6689L43.0554 10.9876C45.109 11.7941 46.2589 12.8699 46.2589 14.7778C46.2589 16.9294 44.4739 18.4212 41.8815 18.4212C39.949 18.4212 38.3353 17.6387 37.3327 15.9269ZM28.7747 5.80294H31.4651V7.19753C32.2469 6.26754 33.298 5.82684 34.6193 5.82684C34.9372 5.82684 35.2305 5.85155 35.4998 5.90096V8.71326C35.1333 8.59053 34.6679 8.54192 34.1547 8.54192C33.0055 8.54192 32.003 8.98181 31.4651 10.009V18.2252H28.7747V5.80294ZM22.4177 17.3454C21.5619 18.0299 20.4366 18.4212 19.1408 18.4212C15.5213 18.4212 12.8556 15.6822 12.8556 12.1121C12.8556 8.54192 15.5213 5.80294 19.1408 5.80294C20.4366 5.80294 21.5619 6.21892 22.4177 6.90267V5.7862H25.1073V18.226H22.4177V17.3454ZM22.4177 10.0329C21.7571 9.03122 20.5099 8.37058 19.1648 8.37058C17.0864 8.37058 15.6185 9.98433 15.6185 12.1121C15.6185 14.2398 17.0864 15.8536 19.1648 15.8536C20.5099 15.8536 21.7571 15.1929 22.4177 14.1904V10.0329ZM0.629395 0.862882H5.8141C9.40817 0.862882 11.8786 3.11336 11.8786 6.38946C11.8786 9.61695 9.40817 11.916 5.8141 11.916H3.4664V18.226H0.629395V0.862882ZM5.69138 9.27508C7.77052 9.27508 8.99298 8.12593 8.99298 6.39026C8.99298 4.65299 7.77052 3.50464 5.69138 3.50464H3.4664V9.27508H5.69138Z" fill="#134A45"/>
</svg>
