<svg width="159" height="35" viewBox="0 0 159 35" fill="none" xmlns="http://www.w3.org/2000/svg">
<path d="M17.064 34.1715C26.35 34.1715 33.8779 26.7097 33.8779 17.5052C33.8779 8.3006 26.35 0.838837 17.064 0.838837C7.77787 0.838837 0.25 8.3006 0.25 17.5052C0.25 26.7097 7.77787 34.1715 17.064 34.1715Z" fill="#134A45"/>
<path d="M16.8054 25.2142H16.7387C15.7253 25.1757 14.7306 24.9303 13.8159 24.4932C12.9013 24.0561 12.0861 23.4362 11.4206 22.6724V22.6223L12.6479 21.5391V21.5892C13.161 22.1845 13.791 22.6683 14.4989 23.0109C15.2069 23.3534 15.9777 23.5476 16.7637 23.5809C17.3147 23.6091 17.8589 23.4504 18.3082 23.131C18.4931 22.9826 18.6423 22.7946 18.7449 22.5812C18.8475 22.3678 18.9008 22.1344 18.9009 21.8976C18.9009 20.731 17.682 20.1641 15.6701 19.3391C14.7177 18.9787 13.7939 18.547 12.9067 18.0476C11.93 17.5488 11.1136 16.7857 10.5512 15.8455C9.98867 14.9053 9.70267 13.8261 9.72592 12.7312C9.72509 11.7972 9.94558 10.8764 10.3692 10.0436C10.7929 9.2109 11.4077 8.48997 12.1636 7.93959C13.6508 6.87416 15.4426 6.31585 17.273 6.34783H17.3314V8.01446H17.1811C14.3844 8.01446 11.429 9.68131 11.3872 12.7812C11.3696 13.5911 11.5852 14.3889 12.0085 15.0801C12.4317 15.7714 13.0448 16.327 13.7749 16.6808C14.58 17.1353 15.4171 17.5307 16.2795 17.8641C18.3833 18.6975 20.554 19.6142 20.5289 21.9558C20.5122 23.8641 18.9426 25.2142 16.8054 25.2142Z" fill="#CBD0D5"/>
<path d="M16.8136 28.6633H16.6383V26.9966H16.6967C19.6437 27.0383 22.7243 25.1218 22.766 21.8552C22.8078 18.4052 20.0862 17.2888 17.4564 16.2054C15.4528 15.3721 13.566 14.597 13.5911 12.722C13.5909 12.2646 13.7101 11.815 13.9371 11.4175C14.164 11.0201 14.4907 10.6887 14.885 10.4556C15.692 9.97816 16.619 9.74083 17.5566 9.77208C19.043 9.80508 20.468 10.3701 21.5722 11.3638L21.614 11.4053L20.4869 12.5889L20.4452 12.5471C19.6417 11.8314 18.6082 11.4263 17.5316 11.4053C16.6967 11.4053 15.244 11.6637 15.2274 12.7387C15.2274 13.4637 16.2959 13.9557 18.0742 14.689C20.7708 15.7973 24.4608 17.3221 24.4023 21.8803C24.4023 25.7219 21.063 28.6633 16.8136 28.6633Z" fill="#CBD0D5"/>
<path d="M42.4684 22.1962C43.0301 22.8595 43.7275 23.3954 44.5136 23.7676C45.2998 24.1398 46.1567 24.3398 47.0267 24.3543C48.5294 24.3543 50.1073 23.4797 50.1073 21.7381C50.1073 19.2381 46.2587 18.9045 43.7206 17.3546C42.9541 16.9207 42.3177 16.2903 41.8773 15.5284C41.4369 14.7665 41.2087 13.9011 41.2161 13.0216C41.2161 9.86331 44.0045 7.7381 47.3356 7.7381C49.3006 7.73742 51.2066 8.40811 52.7371 9.63831L50.9588 11.9881C49.9623 11.1862 48.7241 10.7431 47.4441 10.73C45.7744 10.73 44.4971 11.6547 44.4971 12.963C44.4971 15.0629 48.2039 15.5296 50.7418 17.0796C51.563 17.5326 52.2453 18.2001 52.7159 19.0103C53.1864 19.8204 53.4275 20.7431 53.4133 21.6795C53.4133 25.0127 50.7167 27.3463 47.1101 27.3463C45.8092 27.3686 44.5203 27.0932 43.3423 26.5415C42.1644 25.9896 41.1286 25.1759 40.3145 24.1628L42.4684 22.1962Z" fill="#134A45"/>
<path d="M57.5293 25.8969C56.82 24.9366 56.482 23.753 56.5776 22.5636V16.597H53.4385V14.0055H56.5776V9.64725H59.7166V14.0055H63.6404V16.597H59.7166V22.5889C59.7166 23.4222 59.8252 23.8469 60.1007 24.1135C60.2667 24.2809 60.4663 24.4113 60.6865 24.496C60.9067 24.5808 61.1423 24.6183 61.378 24.6054C61.9476 24.5987 62.5045 24.4374 62.9893 24.1387L64.0829 26.4303C63.1637 27.0484 62.0771 27.371 60.9689 27.3552C60.3239 27.3756 59.6823 27.2559 59.0883 27.0041C58.4944 26.7522 57.9624 26.3744 57.5293 25.8969Z" fill="#134A45"/>
<path d="M76.4724 21.2726H66.9801C67.0755 22.2237 67.535 23.1014 68.263 23.7224C68.991 24.3435 69.9312 24.66 70.8873 24.6058C72.2508 24.5773 73.5474 24.0109 74.4938 23.0308L76.2971 24.7722C75.6301 25.5525 74.8022 26.18 73.87 26.6114C72.9378 27.0429 71.9232 27.2681 70.8956 27.2722C69.9847 27.3195 69.0739 27.1765 68.2218 26.8519C67.3696 26.5273 66.5948 26.0285 65.9471 25.3875C65.2993 24.7464 64.793 23.977 64.4605 23.1292C64.128 22.2814 63.9768 21.3737 64.0164 20.4641C64.0164 16.7058 66.4709 13.656 70.4031 13.656C74.1098 13.656 76.5643 16.681 76.5643 20.4059C76.5225 20.6976 76.4975 21.0226 76.4724 21.2726ZM70.3196 16.3643C69.5703 16.3574 68.8431 16.6168 68.2679 17.0962C67.6928 17.5756 67.3074 18.2438 67.1805 18.9809H73.3752C73.27 18.2493 72.9022 17.5804 72.3401 17.0991C71.7781 16.6177 71.06 16.3568 70.3196 16.3643Z" fill="#134A45"/>
<path d="M88.0346 27.047V25.8137C86.9246 26.7808 85.5005 27.3139 84.0272 27.3139C82.5916 27.3115 81.2015 26.8105 80.0952 25.8971C79.3048 25.2388 78.6702 24.414 78.2372 23.4818C77.8041 22.5496 77.5833 21.5333 77.5906 20.5058C77.5821 19.478 77.8025 18.4613 78.2356 17.5289C78.6687 16.5966 79.3039 15.7716 80.0952 15.1141C81.2411 14.1788 82.6808 13.6769 84.1605 13.6972C85.5897 13.7217 86.963 14.2537 88.0346 15.1975V13.9642H90.982V27.047H88.0346ZM87.8429 22.8222V18.1889C87.4546 17.6871 86.9596 17.2772 86.3938 16.989C85.828 16.7009 85.2047 16.5415 84.5697 16.5223C84.0547 16.5161 83.5436 16.6152 83.0681 16.8133C82.5925 17.0113 82.1626 17.3039 81.8045 17.6738C81.4464 18.0437 81.1678 18.4829 80.9859 18.9641C80.8039 19.4453 80.7224 19.9586 80.7463 20.4724C80.7193 20.9759 80.7943 21.4793 80.9668 21.9531C81.1393 22.427 81.4057 22.8616 81.7502 23.2303C82.0947 23.599 82.5101 23.8946 82.9716 24.0995C83.4332 24.3043 83.9314 24.4139 84.4363 24.4221C85.0913 24.4417 85.7421 24.307 86.3355 24.029C86.928 23.7511 87.4479 23.3377 87.8513 22.8222H87.8429Z" fill="#134A45"/>
<path d="M105.633 27.0468H102.686V25.8135C101.578 26.7832 100.153 27.3168 98.6793 27.3137C97.2435 27.3099 95.8535 26.8091 94.7469 25.8969C93.9561 25.2389 93.3211 24.4143 92.8877 23.4821C92.4553 22.5497 92.2344 21.5332 92.2419 20.5056C92.2336 19.4778 92.4536 18.4608 92.8861 17.5283C93.3194 16.5959 93.9552 15.771 94.7469 15.1139C95.8935 14.1798 97.3327 13.6782 98.8126 13.6971C100.16 13.7037 101.463 14.1747 102.503 15.0305V7.70557H105.633V27.0468ZM102.503 22.8221V18.1887C102.113 17.6871 101.616 17.2778 101.048 16.9896C100.482 16.7015 99.8576 16.5419 99.2218 16.5221C98.7068 16.5159 98.196 16.6149 97.721 16.813C97.246 17.0112 96.816 17.304 96.4585 17.674C96.1019 18.0441 95.8235 18.4831 95.6427 18.9643C95.4619 19.4455 95.381 19.9589 95.406 20.4722C95.3785 20.9753 95.4519 21.4787 95.6235 21.9525C95.7952 22.4263 96.061 22.8605 96.4043 23.2293C96.7485 23.5982 97.1635 23.894 97.6243 24.0989C98.0851 24.3038 98.5835 24.4138 99.0885 24.4219C99.7426 24.4363 100.391 24.2995 100.983 24.022C101.576 23.7444 102.096 23.3336 102.503 22.8221Z" fill="#134A45"/>
<path d="M117.948 13.9636H121.162L112.246 33.3048H109.023L112.488 25.8717L106.569 13.9636H109.908L114.083 22.3549L117.948 13.9636Z" fill="#134A45"/>
<path d="M122.08 7.97247H124.393L131.414 18.1887L138.318 7.97247H140.631V27.0468H137.441V14.6972L131.682 23.1471H131.03L125.269 14.7305V27.072H122.08V7.97247Z" fill="#134A45"/>
<path d="M141.799 7.97154H148.478C149.798 7.9065 151.118 8.10416 152.361 8.5534C153.603 9.00264 154.744 9.69414 155.717 10.5879C156.634 11.49 157.361 12.5672 157.852 13.7556C158.344 14.9438 158.591 16.219 158.58 17.5046C158.592 18.7916 158.346 20.0677 157.853 21.2574C157.361 22.4471 156.635 23.5261 155.717 24.4295C154.744 25.3232 153.603 26.0148 152.361 26.464C151.118 26.9132 149.798 27.1109 148.478 27.0459H141.799V7.97154ZM148.219 24.0463C150.724 24.0463 152.393 23.3128 153.596 22.0545C154.737 20.8167 155.353 19.1861 155.316 17.5046C155.352 15.8257 154.736 14.1977 153.596 12.9629C152.418 11.7046 150.724 10.9712 148.219 10.9712H145.08V24.0463H148.219Z" fill="#134A45"/>
</svg>
